<mxfile host="app.diagrams.net" agent="Mozilla/5.0 (Macintosh; Intel Mac OS X 10_15_7) AppleWebKit/537.36 (KHTML, like Gecko) Chrome/128.0.0.0 Safari/537.36 OPR/114.0.0.0" version="24.8.2" pages="2">
  <diagram name="Icon" id="ll5asqw7NzmZC7n_E1wG">
    <mxGraphModel dx="1177" dy="2267" grid="1" gridSize="10" guides="1" tooltips="1" connect="1" arrows="1" fold="1" page="1" pageScale="1" pageWidth="1169" pageHeight="827" math="0" shadow="0">
      <root>
        <mxCell id="0" />
        <mxCell id="1" parent="0" />
        <mxCell id="Z7AK_8LHHmYPdhEJI3sR-1" value="" style="shape=image;verticalLabelPosition=bottom;labelBackgroundColor=default;verticalAlign=top;aspect=fixed;imageAspect=0;image=https://plmlab.math.cnrs.fr/uploads/-/system/project/avatar/1748/nomad.png;fontStyle=1;imageBorder=none;" vertex="1" parent="1">
          <mxGeometry x="30" y="-1140" width="50" height="50" as="geometry" />
        </mxCell>
        <mxCell id="Z7AK_8LHHmYPdhEJI3sR-3" value="" style="shape=image;verticalLabelPosition=bottom;labelBackgroundColor=default;verticalAlign=top;aspect=fixed;imageAspect=0;image=https://www.svgrepo.com/show/448679/vault.svg;imageBorder=none;" vertex="1" parent="1">
          <mxGeometry x="379" y="-1140" width="70" height="70" as="geometry" />
        </mxCell>
        <mxCell id="Z7AK_8LHHmYPdhEJI3sR-4" value="" style="shape=image;verticalLabelPosition=bottom;labelBackgroundColor=default;verticalAlign=top;aspect=fixed;imageAspect=0;image=https://upload.wikimedia.org/wikipedia/commons/thumb/a/ab/Haproxy-logo.png/640px-Haproxy-logo.png;imageBorder=none;" vertex="1" parent="1">
          <mxGeometry x="530" y="-1140" width="89.05" height="70" as="geometry" />
        </mxCell>
        <mxCell id="Z7AK_8LHHmYPdhEJI3sR-5" value="" style="shape=image;verticalLabelPosition=bottom;labelBackgroundColor=default;verticalAlign=top;aspect=fixed;imageAspect=0;image=https://static-00.iconduck.com/assets.00/ansible-icon-2048x2048-mc4z634w.png;imageBorder=none;" vertex="1" parent="1">
          <mxGeometry x="100" y="-1010" width="37" height="37" as="geometry" />
        </mxCell>
        <mxCell id="Z7AK_8LHHmYPdhEJI3sR-6" value="KV ELK Configuration" style="shape=image;verticalLabelPosition=bottom;labelBackgroundColor=default;verticalAlign=top;aspect=fixed;imageAspect=0;image=https://cdn-icons-png.flaticon.com/512/5956/5956592.png;fontStyle=1;imageBorder=none;" vertex="1" parent="1">
          <mxGeometry x="350" y="-1000" width="50" height="50" as="geometry" />
        </mxCell>
        <mxCell id="Z7AK_8LHHmYPdhEJI3sR-7" value="" style="shape=image;verticalLabelPosition=bottom;labelBackgroundColor=default;verticalAlign=top;aspect=fixed;imageAspect=0;image=https://gitlab.com/uploads/-/system/project/avatar/11674053/gitlab-ci-cd-logo_2x.png;imageBorder=none;" vertex="1" parent="1">
          <mxGeometry x="310" y="-830" width="62.63" height="70" as="geometry" />
        </mxCell>
        <mxCell id="Z7AK_8LHHmYPdhEJI3sR-8" value="Prometheus" style="shape=image;verticalLabelPosition=bottom;labelBackgroundColor=default;verticalAlign=top;aspect=fixed;imageAspect=0;image=https://static-00.iconduck.com/assets.00/prometheus-icon-511x512-1vmxbcxr.png;container=0;imageBorder=none;" vertex="1" parent="1">
          <mxGeometry x="559.9999999999999" y="-910" width="46.18" height="46.27" as="geometry" />
        </mxCell>
        <mxCell id="Z7AK_8LHHmYPdhEJI3sR-9" value="" style="shape=image;verticalLabelPosition=bottom;labelBackgroundColor=default;verticalAlign=top;aspect=fixed;imageAspect=0;image=https://static-00.iconduck.com/assets.00/file-type-nginx-icon-1793x2048-yt5u3fm7.png;imageBorder=none;" vertex="1" parent="1">
          <mxGeometry x="80" y="-510" width="52.55" height="60" as="geometry" />
        </mxCell>
        <mxCell id="Z7AK_8LHHmYPdhEJI3sR-10" value="" style="shape=image;verticalLabelPosition=bottom;labelBackgroundColor=default;verticalAlign=top;aspect=fixed;imageAspect=0;image=https://cdn.icon-icons.com/icons2/2468/PNG/512/user_icon_149329.png;imageBorder=none;" vertex="1" parent="1">
          <mxGeometry x="290" y="-470" width="72" height="72" as="geometry" />
        </mxCell>
        <mxCell id="Z7AK_8LHHmYPdhEJI3sR-11" value="" style="shape=image;verticalLabelPosition=bottom;labelBackgroundColor=default;verticalAlign=top;aspect=fixed;imageAspect=0;image=https://cdn.iconscout.com/icon/free/png-256/free-elasticsearch-226094.png;imageBorder=none;" vertex="1" parent="1">
          <mxGeometry x="500" y="-820" width="60" height="60" as="geometry" />
        </mxCell>
        <mxCell id="Z7AK_8LHHmYPdhEJI3sR-12" value="" style="shape=image;verticalLabelPosition=bottom;labelBackgroundColor=default;verticalAlign=top;aspect=fixed;imageAspect=0;image=data:image/svg+xml,PHN2ZyB4bWxuczp4bGluaz0iaHR0cDovL3d3dy53My5vcmcvMTk5OS94bGluayIgeG1sbnM9Imh0dHA6Ly93d3cudzMub3JnLzIwMDAvc3ZnIiBwcmVzZXJ2ZUFzcGVjdFJhdGlvPSJ4TWlkWU1pZCBtZWV0IiB2aWV3Qm94PSIwIDAgMzYgMzYiIGhlaWdodD0iMzYiIHdpZHRoPSIzNiIgdmVyc2lvbj0iMS4xIj4mI3hhOyAgICA8dGl0bGU+bmFtZXNwYWNlLWxpbmU8L3RpdGxlPiYjeGE7ICAgIDxwYXRoIGNsYXNzPSJjbHItaS1vdXRsaW5lIGNsci1pLW91dGxpbmUtcGF0aC0xIiBkPSJNMjcsNC4xOGExLDEsMCwxLDAtMSwxLjczbDYsMy40N1YyNi42MmwtNiwzLjQ3YTEsMSwwLDAsMC0uMzcsMS4zNiwxLDEsMCwwLDAsMS4zNy4zN2w3LTQuMDVWOC4yM1oiLz48cGF0aCBjbGFzcz0iY2xyLWktb3V0bGluZSBjbHItaS1vdXRsaW5lLXBhdGgtMiIgZD0iTTkuNjgsMjkuOSw0LDI2LjYyVjkuMzhMOS42OCw2LjFhMSwxLDAsMSwwLTEtMS43M0wyLDguMjNWMjcuNzdsNi42OCwzLjg2YTEsMSwwLDAsMCwxLjM3LS4zN0ExLDEsMCwwLDAsOS42OCwyOS45WiIvPjxwYXRoIGNsYXNzPSJjbHItaS1vdXRsaW5lIGNsci1pLW91dGxpbmUtcGF0aC0zIiBkPSJNMTAsMTJWMjRhMiwyLDAsMCwwLDIsMkgyNGEyLDIsMCwwLDAsMi0yVjEyYTIsMiwwLDAsMC0yLTJIMTJBMiwyLDAsMCwwLDEwLDEyWm03LDB2NUgxMlYxMlptLTUsN2g1djVIMTJabTcsNVYxOWg1djVabTUtN0gxOVYxMmg1WiIvPiYjeGE7ICAgIDxyZWN0IGZpbGwtb3BhY2l0eT0iMCIgaGVpZ2h0PSIzNiIgd2lkdGg9IjM2IiB5PSIwIiB4PSIwIi8+JiN4YTs8L3N2Zz4=;imageBorder=none;" vertex="1" parent="1">
          <mxGeometry x="190" y="-700" width="30" height="30" as="geometry" />
        </mxCell>
        <mxCell id="Z7AK_8LHHmYPdhEJI3sR-13" value="" style="shape=image;verticalLabelPosition=bottom;labelBackgroundColor=default;verticalAlign=top;aspect=fixed;imageAspect=0;image=https://upload.wikimedia.org/wikipedia/commons/thumb/0/0a/Apache_kafka-icon.svg/1200px-Apache_kafka-icon.svg.png;imageBorder=none;" vertex="1" parent="1">
          <mxGeometry x="223.92000000000002" y="-605.5" width="30" height="30" as="geometry" />
        </mxCell>
        <mxCell id="Z7AK_8LHHmYPdhEJI3sR-14" value="" style="shape=image;verticalLabelPosition=bottom;labelBackgroundColor=default;verticalAlign=top;aspect=fixed;imageAspect=0;image=https://static-00.iconduck.com/assets.00/rabbitmq-icon-484x512-s9lfaapn.png;fontStyle=1;imageBorder=none;" vertex="1" parent="1">
          <mxGeometry x="310" y="-647" width="34.03" height="36" as="geometry" />
        </mxCell>
        <mxCell id="Z7AK_8LHHmYPdhEJI3sR-15" value="" style="shape=image;verticalLabelPosition=bottom;labelBackgroundColor=default;verticalAlign=top;aspect=fixed;imageAspect=0;image=https://assets-global.website-files.com/62a8969da1ab56329dc8c41e/6458c80c31db957ee94a0805_featured.svg;container=0;fontStyle=1;imageBorder=none;" vertex="1" parent="1">
          <mxGeometry x="223.92000000000002" y="-644.5" width="36.08" height="31" as="geometry" />
        </mxCell>
        <mxCell id="Z7AK_8LHHmYPdhEJI3sR-16" value="" style="shape=image;verticalLabelPosition=bottom;labelBackgroundColor=default;verticalAlign=top;aspect=fixed;imageAspect=0;image=https://upload.wikimedia.org/wikipedia/commons/thumb/a/ab/Haproxy-logo.png/640px-Haproxy-logo.png;imageBorder=none;" vertex="1" parent="1">
          <mxGeometry x="72.99999999999997" y="-642" width="63.61" height="50" as="geometry" />
        </mxCell>
        <mxCell id="Z7AK_8LHHmYPdhEJI3sR-17" value="" style="shape=image;verticalLabelPosition=bottom;labelBackgroundColor=default;verticalAlign=top;aspect=fixed;imageAspect=0;image=https://cdn-icons-png.flaticon.com/512/2482/2482403.png;imageBorder=none;" vertex="1" parent="1">
          <mxGeometry x="510" y="-615.5" width="50" height="50" as="geometry" />
        </mxCell>
        <mxCell id="Z7AK_8LHHmYPdhEJI3sR-18" value="" style="shape=image;verticalLabelPosition=bottom;labelBackgroundColor=default;verticalAlign=top;aspect=fixed;imageAspect=0;image=https://static-00.iconduck.com/assets.00/vagrant-icon-1981x2048-m89lsyi5.png;imageBorder=none;" vertex="1" parent="1">
          <mxGeometry x="650" y="-254.95" width="93.59" height="96.73" as="geometry" />
        </mxCell>
        <mxCell id="Z7AK_8LHHmYPdhEJI3sR-19" value="" style="shape=image;verticalLabelPosition=bottom;labelBackgroundColor=default;verticalAlign=top;aspect=fixed;imageAspect=0;image=https://upload.wikimedia.org/wikipedia/commons/d/d5/Virtualbox_logo.png;imageBorder=none;" vertex="1" parent="1">
          <mxGeometry x="480" y="-198" width="50" height="50" as="geometry" />
        </mxCell>
        <mxCell id="Z7AK_8LHHmYPdhEJI3sR-20" value="" style="shape=image;verticalLabelPosition=bottom;labelBackgroundColor=default;verticalAlign=top;aspect=fixed;imageAspect=0;image=https://static-00.iconduck.com/assets.00/docker-icon-512x438-ga1hb37h.png;imageBorder=none;" vertex="1" parent="1">
          <mxGeometry x="390.90999999999997" y="-526.21" width="89.09" height="76.21" as="geometry" />
        </mxCell>
        <mxCell id="Z7AK_8LHHmYPdhEJI3sR-21" value="" style="shape=image;verticalLabelPosition=bottom;labelBackgroundColor=default;verticalAlign=top;aspect=fixed;imageAspect=0;image=https://www.svgrepo.com/show/439231/mongodb.svg;imageBorder=none;" vertex="1" parent="1">
          <mxGeometry x="190" y="-820" width="50" height="50" as="geometry" />
        </mxCell>
        <mxCell id="Z7AK_8LHHmYPdhEJI3sR-22" value="" style="shape=image;verticalLabelPosition=bottom;labelBackgroundColor=default;verticalAlign=top;aspect=fixed;imageAspect=0;image=https://freesvg.org/img/server-linux.png;imageBorder=none;" vertex="1" parent="1">
          <mxGeometry x="100" y="-290" width="60" height="60" as="geometry" />
        </mxCell>
        <mxCell id="Z7AK_8LHHmYPdhEJI3sR-23" value="" style="shape=image;verticalLabelPosition=bottom;labelBackgroundColor=default;verticalAlign=top;aspect=fixed;imageAspect=0;image=https://static.thenounproject.com/png/1127762-200.png;imageBorder=none;" vertex="1" parent="1">
          <mxGeometry x="474.53" y="-510" width="200" height="200" as="geometry" />
        </mxCell>
        <mxCell id="Z7AK_8LHHmYPdhEJI3sR-24" value="" style="shape=image;verticalLabelPosition=bottom;labelBackgroundColor=default;verticalAlign=top;aspect=fixed;imageAspect=0;image=https://cdn.worldvectorlogo.com/logos/hashicorp-packer.svg;imageBorder=none;" vertex="1" parent="1">
          <mxGeometry x="210" y="-200" width="66.67" height="100" as="geometry" />
        </mxCell>
        <mxCell id="Z7AK_8LHHmYPdhEJI3sR-25" value="" style="shape=image;verticalLabelPosition=bottom;labelBackgroundColor=default;verticalAlign=top;aspect=fixed;imageAspect=0;image=https://cdn-icons-png.flaticon.com/512/3222/3222791.png;imageBorder=none;" vertex="1" parent="1">
          <mxGeometry x="610.8" y="-770" width="172" height="172" as="geometry" />
        </mxCell>
        <mxCell id="Z7AK_8LHHmYPdhEJI3sR-26" value="Windows Application" style="shape=image;verticalLabelPosition=bottom;labelBackgroundColor=default;verticalAlign=top;aspect=fixed;imageAspect=0;image=https://cdn-icons-png.freepik.com/512/0/11.png;imageBorder=none;" vertex="1" parent="1">
          <mxGeometry x="500" y="-110" width="50" height="50" as="geometry" />
        </mxCell>
        <mxCell id="Z7AK_8LHHmYPdhEJI3sR-27" value="Docker App" style="shape=image;verticalLabelPosition=bottom;labelBackgroundColor=default;verticalAlign=top;aspect=fixed;imageAspect=0;image=https://cdn-icons-png.flaticon.com/512/518/518713.png;imageBorder=none;" vertex="1" parent="1">
          <mxGeometry x="180" y="30" width="50" height="50" as="geometry" />
        </mxCell>
        <mxCell id="Z7AK_8LHHmYPdhEJI3sR-28" value="Windows App" style="shape=image;verticalLabelPosition=bottom;labelBackgroundColor=default;verticalAlign=top;aspect=fixed;imageAspect=0;image=https://icons.iconarchive.com/icons/alecive/flatwoken/512/Apps-Microsoft-icon.png;imageBorder=none;" vertex="1" parent="1">
          <mxGeometry x="301" y="30" width="50" height="50" as="geometry" />
        </mxCell>
        <mxCell id="Z7AK_8LHHmYPdhEJI3sR-29" value="" style="shape=image;verticalLabelPosition=bottom;labelBackgroundColor=default;verticalAlign=top;aspect=fixed;imageAspect=0;image=https://www.svgrepo.com/show/374306/git-opened.svg;imageBackground=default;imageBorder=none;" vertex="1" parent="1">
          <mxGeometry x="90" y="-920" width="50" height="50" as="geometry" />
        </mxCell>
        <mxCell id="Z7AK_8LHHmYPdhEJI3sR-30" value="" style="shape=image;verticalLabelPosition=bottom;labelBackgroundColor=default;verticalAlign=top;aspect=fixed;imageAspect=0;image=https://git-scm.com/images/logos/downloads/Git-Icon-1788C.png;imageBorder=none;" vertex="1" parent="1">
          <mxGeometry x="220" y="-880" width="30" height="30" as="geometry" />
        </mxCell>
        <mxCell id="Z7AK_8LHHmYPdhEJI3sR-31" value="" style="shape=image;verticalLabelPosition=bottom;labelBackgroundColor=default;verticalAlign=top;aspect=fixed;imageAspect=0;image=https://static-00.iconduck.com/assets.00/harbor-icon-509x512-72v703ot.png;imageBorder=none;" vertex="1" parent="1">
          <mxGeometry x="136.61" y="-448" width="49.71" height="50" as="geometry" />
        </mxCell>
        <mxCell id="Z7AK_8LHHmYPdhEJI3sR-32" value="" style="shape=image;verticalLabelPosition=bottom;labelBackgroundColor=default;verticalAlign=top;aspect=fixed;imageAspect=0;image=https://upload.wikimedia.org/wikipedia/commons/e/eb/Inedo_ProGet_Logo.png;imageBorder=none;" vertex="1" parent="1">
          <mxGeometry x="260" y="230" width="217" height="217" as="geometry" />
        </mxCell>
        <mxCell id="Z7AK_8LHHmYPdhEJI3sR-33" value="" style="shape=image;verticalLabelPosition=bottom;labelBackgroundColor=default;verticalAlign=top;aspect=fixed;imageAspect=0;image=https://upload.wikimedia.org/wikipedia/commons/thumb/9/9a/Visual_Studio_Code_1.35_icon.svg/2048px-Visual_Studio_Code_1.35_icon.svg.png;imageBorder=none;" vertex="1" parent="1">
          <mxGeometry x="490" y="180" width="30" height="30" as="geometry" />
        </mxCell>
        <mxCell id="Z7AK_8LHHmYPdhEJI3sR-34" value="" style="shape=image;verticalLabelPosition=bottom;labelBackgroundColor=default;verticalAlign=top;aspect=fixed;imageAspect=0;image=https://upload.wikimedia.org/wikipedia/commons/thumb/5/59/Visual_Studio_Icon_2019.svg/2060px-Visual_Studio_Icon_2019.svg.png;imageBorder=none;" vertex="1" parent="1">
          <mxGeometry x="530" y="180" width="30" height="30" as="geometry" />
        </mxCell>
        <mxCell id="Z7AK_8LHHmYPdhEJI3sR-35" value="Application UI" style="shape=image;verticalLabelPosition=bottom;labelBackgroundColor=default;verticalAlign=top;aspect=fixed;imageAspect=0;image=https://cdn-icons-png.flaticon.com/512/5044/5044729.png;imageBorder=none;" vertex="1" parent="1">
          <mxGeometry x="350" y="-260" width="48.8" height="48.8" as="geometry" />
        </mxCell>
        <mxCell id="Z7AK_8LHHmYPdhEJI3sR-36" value="" style="shape=image;verticalLabelPosition=bottom;labelBackgroundColor=default;verticalAlign=top;aspect=fixed;imageAspect=0;image=data:image/png,iVBORw0KGgoAAAANSUhEUgAAAgAAAAIACAYAAAD0eNT6AAAABHNCSVQICAgIfAhkiAAAAAlwSFlzAAAOxAAADsQBlSsOGwAAABl0RVh0U29mdHdhcmUAd3d3Lmlua3NjYXBlLm9yZ5vuPBoAACAASURBVHic7N13eFRV/j/w952ZTHrvBUIn9N57FRERBRQVUVRc+1pwdV1x97v23gvqqqBSBQQBAZEqRVB6SyAFCKST3qb+/oj4Q0zI5N4zc+fOvF/Ps48r5HzOe0OW+5l7zz0HICIiIiIiIiIiIiIiIiIiIiIiIiIiIiIiIiIiIiIiIiIiIiIiIiIiIiIiIiIiIiIiIiIiIiIiIiIiIiIiIiIiIiIiIiIiIiIiIiIiIiIiIiIiIiIiIiIiIiIiIiIiIiIiIiIiIiIiIiIiIiIiIiIiIiIiIiIiIiIiIiIiIiIiIiIiIiIiIiIiIiIiIiIiIiIiIiIiIiIiIiIiIiIiIiIiIiIiIiIiIiIiIiIiIiIiIleTnFg7DEAAAD8nzkFERCRXFYBKAOVqB1GDiAYgAMAQACMA9ADQHkBzQbWJiIiczQogE0AqgL0ANgH4BYBJzVDOpuQiPRLAHQBuABAoJA0REZF7uABgEYDPAfymchankNMATATwDIA+grMQERG5ow0A/gtgh9pBRGpKA9AawPsAxjkpCxERkbuyA/gawGwA+SpnEcLRBmAGgA8ABDkxCxERkbsrAHA7gB/UDqKU3oHf/wjA8wCMzo9DRETk1gIB3AzADOBnlbMocqUGwBfAYgDTXZSFiIhICyQAowBEAFivchbZGmoAdAAWAJjswixERERa0g9AJDT6OKChBuBdADNdGYSIiEiD+gIoQd2+AZpS3yLAG1F365+IiIgaZwEwHBp7TfDyBqAZgCMAQlTIQkREpFVZADqjbmthTbj8EcAXALqrEYSIiEjDwlB3Td2odhBHXXoHYDiAzSrlICIi0joTgBTUnSvg9i69A/AZgFZqBSEiItI4PepOwF2tdhBHXLwD0APAPtHFA4LDRZckIiKV2O11++F6CrvNhtqqUtFla1F3Iq7bbxds+P2fd4goFhAUhmGTZqHn8OuR1LoLDD7cPJCIyFNYrUBuWV0j4CksphqcS9uDozuWYf+PX8JiqlFa0hfANNS9Tu/WJNRt+pMDIEZJoX5jb8bNj7yJwJAIIcGIiMj9lFQBFYqvke6prDAb371zNzIPKl4Otwd1mwS5NQlATyg863j8jCdx/T3/FZOIiIjclsUG5JbCs54FXMJmtWDlO7NwaMsCRWUARAO4ICaVc+hQt/pftt4jJmPSrP8Tk4aIiNyaQQf4NnaMnIbp9AZMfOhjJLVX9AFeB2CooEhOo4OC9/59fP1x40OvQZIcPVWYiIi0zs/Dl3fpfXwx4f73IUk6JWW6icrjLDoA7eUOHjhuOsJjEgXGISIid2c0NP41WhfbsitadhuhpESKqCzOokPd9r+ydB86UWAUIiLSAoOiD8bakdJf0TVO9rXVVXQAguUOTmzZSWAUIiLSAr2XNAAxyYqucbKvra6iAxAgd3BweJTAKEREpBU6L1j6FRQWq2i4qBzOovv9P/IG673gQRAREXklhdc4t79P4vYBiYiISDw2AERERF7IIxuA6soytSMwAxERuTWPeIhvtZix84evsHv9QmQe2wOzqQZ6gw8SW3VG75GTMXLyffD1d+56DKvFjJ1r52P3hkV/ypDUugt6j5yMETfc65IMO9bOwy8bFiHz2F6YTTUw+Bh//z5MwYjJ98LXL9CpGYiISBskKNjRee62Kuh06u4JmXf2JD7851Sczzre4NeERsTinv9+jXbdnbMzY+6ZNHz49FTkZJ1oJMM3aNd9iHMynE7FB09PRe7p1IYzRMbh3ucWoE3XQU7JQETe43wxYPPQ8wAuKs7NwLv3dJA7PAtAS3FpxNP0I4D87HS8fO+wK178AaD0Qh7efGQ8Tvy2xQkZTuGV+4Zf8eJ/McNbj45H6v5twjPknT2Jl+8bfsWLPwCUFuXijb+PQ9oB8RmIiEhbNNsA2G02zH32FlSUFjn09VaLGXOfvRVV5cVCM3w8x/EMFrMJc+fcgqqKEmEZbDYrPn7mZlSWOXbolMVswsdzbkF1RamwDEREpD2abQB+3bwMZ9IONGlMRWkhNix6R1iGvZuW4uzJg00aU15SgI2L3xWXYeMSZKcfblqG4gJsXPKesAxERKQ9mm0A9m5cIm/cT/LG1WePzAxyxwnNIPD7QERE2qPZBuB06j5Z4/Kz04Xd/pabIe/sSdRUlauaIfd0KmqrK4RkICIi7dFsA1BZLv85eoWDz8sbzVAmfz1BZakbZFAwloiItE2zDUBQaITsscFhYg4xCg6NlD02KEz+WFF1AhV8D4mISNs02wAkp/SSNS4mqQ38AsSc0ig3Q3yLFGGbArWQmSGhZUduCkRE5MU02wD0HXWjrHH9xtwkLsNoeRn6jJwqLoPM70OfUeIyEBGR9mi2Aeg5bBJadOjdpDHB4dEYc9PfhWXoNfwGJLfv2aQxoRGxGH3Tw8Iy9B45Bc3bdW9ahsg4jL7xIWEZiIhIezTbAEg6Hf72328QHB7t0NcbfHxx73ML4R8UKjbDcwsQHOZ4hr89twD+gSFCM9z73EIEhTq2rsHH6Id7n18o7DEIERFpk2YbAACIim+Bf368Dc3adL3i14VFJ+Dxd9c5ZR/+6ISWeOrjrUhq3eWKXxcek4jZ765H226DxWdIbIV/zt2KxNadr/h1ETFJmP3eBrTpMlB4BiIi0hbNHwYE1G2Hu3v9AuxevwAZR/egtroCPkY/JLXpij4jp2DYpFkw+gU4P8O6b7B7w0JkHPkFtTWV/z/DqKkYdt3dzs9gtWDXum/wy4aFdd+H3zM0a9sNvUdOwfBJs+Dj6+/UDETkHXgYUKOy4OaHAXlEA3A5U02V0y+2zEBE3owNQKOy4OYNgKYfATTEHS56zEBERO7MIxsAIiIiujI2AERERF6IDQAREZEXYgNARETkhdgAEBEReSE2AERERF6IDQAREZEXYgNARETkhdgAEBEReSE2AERERF6IDQAREZEXUnQYUEBwuMAoRESkFXa7gouHRthtNtRWlcodngU3PwzIoGRwVXmxqBxERETkQnwEQERE5IXYABAREXkhNgBEREReiA0AERGRF2IDQERE5IXYABAREXkhNgBEREReiA0AERGRF2IDQERE5IXYABAREXkhNgBEREReiA0AERGRF2IDQERE5IUUnQZ4IrMAOr1eVBYiItKIimoTbGqHcLLsM1mYNKa/2jGcRlEDEBoWDj0bACIir6P3NcFmVzuFc5UGe/aR93wEQERE5IXYABAREXkhNgBEREReiA0AERGRF2IDQERE5IXYABAREXkhNgBEREReiA0AERGRF2IDQERE5IXYABAREXkhNgBEREReiA0AERGRF2IDQERE5IXYABAREXkhNgBEREReyKB2ADmqq6uw6cd1WLd2FU6mHkdOzjlUV1WpHYvIo+n0ekTHxCIxsRmGjxqLq6+5DsktWqkdi4hkkgDY5Q7OKbZAr9cLjHNlZrMZC7/+Aq+88CwK8vNcNi8R/ZUkSbh20hT8698vomWrNmrHIRcrrzbBJvvqoQ1nsjIwqn8HucOzALQUl0Y8zTwCOH8uG+NHDcDsv/+NF38iN2C327FqxVIM6dcZixfMUzsOETWRJh4BnDh2BDdcOwqFBflqRyGiy5hqa/HQvXfgXPZZPPaPZ9SOAwDISD+JdWtX4XRWBooKC9SO45EsVhvsKt0B8A8IRHxiEgYOGYFefQe59E60J3H7RwDFF4pw1Yh+yMpMd+o8RKSMJEn44NOvMOXGW1XLkJtzHs889Qi+/+5b2NW6OpFLtW3fEXNeeAsDBg8XXpuPAFT26EOzePEn0gC73Y7HHpqFc9lnVZk/LfU4rhrRF6tWLOXF34ucTD2GmdOuwZJvPlc7iua4dQPw297d+GH1d2rHICIH1VRX45UXnnX5vGVlpZh+47XIOX/O5XOT+qwWC5598iHs+nmL2lE0xa0bgPfefpWdPJHGLF30FfLzcl065/tvv8o7hV7OarHgv08/AqvVqnYUzXDbBqC6ugqbN65XOwYRNZHVasW6tatcOt/8Lz5x2Xzkvk6lHccvO7epHUMz3LYB+PWXXaiu5uY+RFr087ZNLpvr6JGDuFBU6LL5yL3t2u66nz2tc9sG4Pz5bLUjEJFMrlwIyOf+dKkcXjsc5rYNADf7IdIuV64B8PX1ddlc5P78/PzVjqAZbtsAmEwmtSMQkUxms+v+/8ttiOlSyS1bqx1BM9y2ASAickRyi1Zo36GT2jHITYwce43aETSDDQARad7fH3tK7QjkBsZeMwmt26aoHUMzNHEWQFM9cmc/PPv3oWrHINK0szml6DZOG6/X3TD1FqxetRxrv1+hdhRSSXRsHOY8/6baMTTFIxsAfz8DwkP91I5BpGllFbVqR3CYTqfDh59+hftn3cYmwAslNkvG3PnLERefqHYUTeEjACLyCAEBgfji62X48NOv0LYdbwN7g9CwCNx9/2NYtXEP2nforHYczfHIOwBE5J0kScKUm6Zjyk3TkZlxCqdOpqK6ihuKOUO1ySL/KFmF9HoD4uIT0KlLD+gNvIzJxe8cEXmklq3a8BVBJyqvNsHGo1o0jY8AiIiIvBAbACIiIi/EBoCIiMgLsQEgIiLyQmwAiIiIvBAbACIiIi/EBoCIiMgLsQEgIiLyQmwAiIiIvBAbACIiIi/EBoCIiMgLsQEgIiLyQmwAiIiIvBAbACIiIi/EBoCIiMgLsQEgIiLyQga1AxARiWa323Hk0AFkZpxCSUmx2nE8Uq3ZAptdnbn9/PwRl5CE7r36ws/PX50QHoANABF5DIvFgq+++ATvvfUKsrPPqB2HnMzfPwDX33QbHnr8GURFx6gdR3P4CICIPEJ5eRlumXINnnz8AV78vUR1dRUWfDkXE0f3waEDv6odR3PYABCR5lmtVsy6/SZs2bRB7SikgoK8XNx9y3XIPpOldhRNYQNARJq38OsvsGnjOrVjkIqKLxTiP089rHYMTWEDQESa98E7r6kdgdzA1k3rkXr8iNoxNIMNABFpWkb6SaSfSlM7BrmJzT+uVTuCZrABICJNy8pMVzsCuZEzWRlqR9AMNgBEpGkWi0XtCORGzGaT2hE0gw0AEWlaQkKS2hHIjSQkNlM7gmawASAiTevYuStiYuPUjkFuYsjwMWpH0Aw2AESkaTqdDrff+Te1Y5AbSOnYBT37DlQ7hmawASAizbv/4dlo2y5F7RikIoOPD/7z8rvQ6XhZcxS/U0SkeYGBQfh6yfdIbtFK7SikAh8fI155+1P04qf/JmEDQEQeoWWrNli/+RfcPH0m9Hq92nHIRbp2740F323ExMk3qx1Fc3gaIBF5jIjIKLzz4ed46pnnsHHDWqSfTEVFRbnasTySyWJTbW6j0YjY+EQMHDoSnbr0gCRJqmXRMjYARORx4hMScdsds9SO4dHKq02w2dVOQUrwEQAREZEXYgNARETkhdgAEBEReSE2AERERF6IDQAREZEXYgNARETkhdgAEBEReSE2AERERF6IDQAREZEXYgNARETkhdgAEBEReSE2AERERF6IDQAREZEXYgNARETkhdgAEBEReSE2AERERF7IoHYAIiJnKSzIR2VlhdoxXCYsPAKhoWFqxyCNYANARB4l9fhRvPvWK/hx3WqUlBSrHcflEhKTMGHiZDz4yD8QF5+gdhxyY3wEQEQewW63463XXsDwgd2wdNFXXnnxB4Dz57LxyUfvoH+Pdljx7SK145Ab4x0AIvIILz8/B2+99oLaMdxGVVUl7r3rFgDA9VOmqZyG3JFHNgAfff0bFq8+pnYMIk2zWGxqR3DYzp+34u3XX1Q7htux2+145IG70G/AYCQkJqkdh9yMRzYAJWU1KCmrUTsGEbnIqy/+G3a7Xe0Ybqm6ugrvvfUKXnr9PbWjkJvhGgAi0rSC/Dzs3rld7RhubfWqZWyQ6C/ctgHQ6/VqRyAimXSS6/5qOXH8KGw27TyuUENebg4uFBWqHYPcjNs2AJFR0WpHICKZYmLjXDZXRXmZy+bSstLSErUjkJtx2waA768SaVdMXLzL5oqKjnHZXFrmyqaMtMFtG4BevfvBYPDINYpEHq9f/0Eum6tL1x4ICAh02Xxa1KlLNwQFBasdg9yM2zYA4RGR6DdgsNoxiEiGcddc57K5/Pz9ce2kKS6bT4umTrtN7Qjkhty2AQCAO+66T+0IRNREQ0eMRus27Vw655P/+j8EB4e4dE6taNW6Le6a9YDaMcgNuXUDMPH6qejdd4DaMYjIQZIkYc7/vezyeZOaJWPuFwth9PV1+dzuLDwiEvMWfgdfPz+1o5AbcusGQJIkvPnuJ3x2RaQRjz7xL3Tr3kuVuUePHY8VqzehVeu2qszvbvr0G4gNW/agfUpHtaOQm5IAyN4dIqfY4pL39df/8D3unD4ZZrPZ6XMRkTwTrpuMz+YtgU6n7ucKs9mM71d+i/VrVyHj1EmvOhQoOiYWKR064dpJUzBi1FVOnau82gSbh+8tdCYrA6P6d5A7PAtAS3FpxNNEAwAAu3dux8zpk1FUWOCS+YjIcTNm3oOXXn8fPj4+akchF2ED0KgsuHkD4NaPAC7Vf+AQ/LjtV0yeeovqnzCIqE7bdimYv/A7vP7OXF78iTRGM3cALnX86GEsW7oA69euwqmTqbBarS7PQOStwiMiMWLkWIy/9nqMv/Z67tfhpXgHoFFZcPM7AJpsAC5ltVpRkJ+Hgvw82OzcD5zIWYKCgpGQmAR//wC1o5AbYAPQqCy4eQOg+dZdr9cjLj6BWwcTERE1AR+mExEReSE2AERERPVQ+LirSlQOZ2EDQEREVI+IqGgYjbJ3lzwjMoszsAEgIiKqh16vx4DBw+UO3yAwilOwASAiImrArTPvlTOsHMA3gqMIxwaAiIioASPGjMeYqyc2ddhTAPKdEEcoNgBERERX8Np7n6NP/yEOfzmAD50YRxg2AERERFcQGBSMeUvX4oHHnoZ/QGBDX3YawE0A/uG6ZMpofidAIiJyPW/YCbA+ZaUl2LZpPVKPH8HJ40eO//Tj2sUAdgDYCkBTR9ayASAioiYrq6rFsSOHsGfXdhw68Cuy0k8i5/xZ1NTUoLys1KEakiQhJCQM/gEBaJbcCi1bt0XPPv3Rb+AwJDVv4dz/AQIYdfrPkmMMs9TOIRcbACIictj5c9mY/8VcLFn4FbLPnnbaPF269cKkqbdi8rQZCAwKdto8SrABYANAROTxcs6fw8vPz8GyJd/AZDK5bN7Q0HDcPutB3P3AY253EJXWGwAuAiQiogbZ7XbM/fBtDOyVgoVff+HSiz8AlJYW493Xn8O4wV2x5ad1Lp3b07EBICKiel0oKsRN14/DnKceRWVlhapZzp87i3umT8Lzcx6H1WJRNYunYANARER/kZlxCuNHD8SWTe6zo63dbse8T9/HrNsmobKiXO04mscGgIiI/iQrMx3XXT0MGekn1Y5Sr+2bf8TMaRNQpfJdCa1jA0BERH8oLMjH5GtHIzfnvNpRrmj/r7vx0KybYbVa1Y6iWWwAiIgIAGCxWHDPzGk4eyZL7SgO2bZpA9586Vm1Y2gWGwAiIgIAfPDOa/h522a1YzTJpx+8gZ3bNqkdQ5PYABARETLST+L1V/6rdowms9vt+PdTD8FkqlU7iuawASAiIrz8/BzU1tSoHUOWrIxTWDT/M7VjaA4bACIiL5eWehyrVixVO4YiH73zMu8CNBEbACIiL/fFpx/CZrOpHUORwoJ8bFjzndoxNIUNABGRFzObzVi25Bu1Ywjx7aJ5akfQFIPaAYiISD2/7PoZJSXFimpIOh0iW3ZBdNse8A+Ngt7oB0mSGh1nt1lhqa1GReF55J/Yi9KcDEU59uzcjvKyUgSHhCqq4y002wDY7XYcOrgPaSeOIT8vFxcuFKkdSRE/Pz/ExMYjMakZBgwaisDAILUjAah7L3jP7h04czoT589lq74fOKnHXX9GSZltWzYqGm/wDUD7UTcjMCqhyWMlnR4+/kEIb9YO4c3aoTD9EDJ3fg+7Xd7jCLPZhL27f8bIsdfIGu9tNNcAFF8owntvv4oV3y7EueyzasdxCl8/PwwbPhoPP/YU+vYfpEqGrMx0vPXaC/hh9XeKPx2Q5/H188PwEWPw8GNPoU+/gWrHIQUO7v9N0fi2w6fIuvjXJ6p1V5irK3B230+yaxw5tI8NgIM0tQbgy88+Qt9ubfD+26967MUfAGprarBh3WpMGDsYM6dPRrEL726YzWb855knMLhPRyz8+gte/KletTU1WP/D97hmzCDcedsUFBdfUDsSyZSWekz22PDmKQiOTRaYBojr2B/GQPm38E+ekP+/x9to4g6A2WzGU48/gK++/FTtKC63ZtVyHD18EF8tXoX2KR2dOldx8QXcPWMqtm/lrlrkuNUrl/3xM9qufQe142jWueyzyEg/iaLCApSVlQIAAoOCkJjYDM2TWyIhMUn4nDabDfl5ubLHR7fpLjBNHUmnQ1Srzjh/eIes8Xm5zjnDwGazIftMFs5ln8GFogKUl5WiKC+vHYBJAHIBHAdQ6pTJnUQCYJc7OKfYAr1eLzBO/Z549D7M+9/HTp/HncXGxWP95j1O+UsAqGuybpw0Fju2b3FKffJ8zv4Z9TQlJcVYtWIpNm1ch10/b230Lkp0TCz69h+EceMnYuzV1yI8PELR/EcPH8SCrz7Hpx+/K7tGr2lPQG/0U5SjPqXnTiH1p4WyxgYEBuFvDz2B62+cjvgEZT+L58+dxY9rV2LzxrU4uG8vKsrLGhuSAWATgDUA1gIwKQrgZG7fAMz7fC6eeORep86hFT169sGajTthMIi/cfOPx+7Hl599JLwueZeevfthzY87XPLBQKuOHTmE999+FatWfgtTrbyNa3z9/HDDlJtx34OPIaVjZ4fHFeTnYdnSBVi8YB6OHj4oa+6LDEY/9Jz2hKIaDakpK8Kh7z5UVEOn06H/oGGYNHU6xk24Hv4BgQ6P3bH1J3z5ybvYtnmDkv0RigD8D8BbqLtD4HbcugEoLS1B325tXPoM3N298e4nuO2OWUJrHj18EKOG9NT8RiDkHt56/zPcOuMutWO4ndyc8/jPv2ZjxbJFsNtl/7X7J3q9HlOn3YY5//cyomNi6/0au92OzT+tx+effIBNG9fBYrEImds/LBpdJjrnw5nVbMJvC18RVi8gMAjjJtyAO2Y9iA6duzX4dSeOHcaLz87Grp+3CJsbQA2A1wC8BKBaZGGl3HoR4EfvvcGL/2Vee+k/MJvNQmu+9NwzvPiTMK+++G/hP6Na9+2SbzCodwcs/3ahsIs/AFitViz65ksM6dcZ3y1b/KffM5vN+Hbx1xgxqDum3XA1NqxbLeziDwBG/2BhtS6n9zFCbzAKq1dVWYHli+dj4ui+mDntmr+cHmi1WvH+Gy/ghqsGir74A4AfgDkADgPoK7q4Em59B6BP19Y4naVsYwhPtHTlBgwbMUZIreLiC+jUOlboXwxEy1ZtxJDho9SOoTqLxYJ/zn4Q8z6f65L57nvwMTz+1LNY+PUXmPv+W8jOPuO0uZr1Go34zoMAme/sN+bEhq9QlpvllNoA0KlLD9z9wGMYPGwUHn/gDmzbtMFpc13CBOARAG7xvNVt3wJIPX6UF/8GrFuzSlgD8NOPP/DiT8KtW7vK6xuA2poazJo5DevWrHTZnB+9/yY+m/ueS+7ARLboCL/QCJgrymC1iF/rFhLf0qkNwNHD+/HovbfB4OMDi+vuWBkBfAggAXV3BVTlto8A0lKPqx3BbaWlifvenOT3mZzA2///a6qtxZ23TXHpxf8iV1z8/UIiEJrUGjqdDr4hofDxD0TdDWVxolp1gSQ5/xLlwov/pZ4B8KYaE1/KbRuAXCe9y+kJ8nLEfW/ycnOE1SK6yJv//1tbU4PpN03Ej+vXqB3FaZJ6jLjk4izBxz8QvkEhgAP7/zvKGBiK8OQUYfXc0KMAXlczgNs2ABXl5WpHcFsXNwkRobzx91qJmqxc4M+ollz85L/FNc+TVREYGY+ErkP+8ut6oy/8Q8Ih6cStC2vea7TQxYBu6HGoeCfAbRsAkStliYiczRs++esMPmg/5lboGlj8LekN8AsJh87HR8h8xsBQNOstZr2TG1PtToDbNgBERFrhDZ/8AQntR9+CkLgr7/0v6XTwCw6D3lfMDoEx7XoivtMAIbXcmCp3Atz2LQAlhvdPxrhhbdSOcUWl5TV46UN5e127i1uu64yuKfVvPkLaV1JWg5c/0vbPqCuYamsxc/pkz//kP/oWxKb0dnCEBN/AYJglHcw1VYrnb9ZrNAy+AYpOCdSAR3//52OumtAjG4ABPZPw5H3ufUTp2ZwyzTcAE8e0w00TOqkdg5zk9LlSNgCNqK2pwW3TrvPoT/5BMUloP/oWBMc0a+JICT4BQYAkwVxdqThHfOeB8A0Ox5m962Gq8tg1Yo8CsAGY7YrJPLIBICJyNrPZ7NG3/QMi4pDUYzjiOw9Q9Dqej38gJEkn5KIdkdwBoQmtkHN0FwpO7oe5ukJxTTf0OOq2DHb6PgFsAIiIZHj0wbuF3/aXJB3Cm7eHX0gE7DYbSnMyUHUhT+gcV2Iw+iGqbXfEdeyHsMTWEPVuv8HPH5IkobZS+VtHeh9fJHUfjsSuQ1F8NhVFGYdQcu4U7K7azlySEBSViMCIONjtNlReyEVlofDXXp8BkIO6TYOchg0AEVETffnZR1iycL7QmrEpfdB6yCQYA0P+9Oul59ORvv07lOVkCZ3vIkmnQ0TzDojt0AdRrbtCZxCzgv9yel8/+AKorSyHgh3o/yDpdIhI7oCI5A6w1FahKPMoCjMOOeNi/IfIlp2R2H0Y/IL/fBRzdUk+MnetQUVBtsjp3gbwG4BfRBa9FBsAIqImOJl2AnOeFrtOq+XACUjue1W9vxea0Bo9bnwUmTtX48zejRBx8QQAY2AIkroPR1yn/jAGOO9gn0vpff1gtNtgkHnFoQAAIABJREFUqhJ7697gG4DYlD6ITemDmrIi5KX+ioKT+2GziNnlT6c3oOWACYhs1aXe3/cPi0GHsTOQ/vMKXDgtbBdMHwALAHQBoHwlZT3YABARNcGcpx5FbU2NsHpXuvhfJEk6tBo0EUHRSTix4WtFFza/kEgk9RiOhC6DnPZp/0oMfgGw2+1CFgbWxy8kEsl9rkJi1yHIO7EXeSf2wlIr/xReH/8gtB1xI4KiEq/4dZJej9ZDJ0PasRJFGYdlz3eZVgD+CSetB2ADQETkoB/Xr8GmjeuE1Ws1aCKa93F8o5uYdj0RFJWIU1u/xYXTJ5o0V1BMEpr3HoPott1dssf+lfj4BwI2G8wKLsyNMfgGILHbMMR1GoCCk/uRe2w3TE1ZgyBJiG7THc16jITBL8DBIRJaDZoIu82KC1nHZCb/i9moWwsgfN92NgBERA56542XhNVq6sX/ooCIWHS9/gGUnktHzpGdKMw43OAnXINvACJadEBi1yEITWytNLJQhsBg2Gw2WM21Tp1HbzAirkM/xKb0QfGZVBSk7UN5/hnYrPWfgurjH4TIlp0Q3bYH/EOjmzyfJOnQesj1ACCqCfBD3d4AT4godik2AEREDjhy6AD27BazL4Lci/+lQhNbIzSxNex2O6ou5KLqQh4stVWw2+0wBgTDLyQCgVGJkAQe0COSBMA3KATVZcWwN3AxFjqf9P8XDdqsFlRdyEVtZSmstdWQ9HoYjP4ICI+Fb3C4kLkENwF3oe7NAKHdEhsAIiIHLF30lZA6Ii7+l5IkCYGR8QiMjBdW02UkCX5BoagpL3bda3yoW9QXFJ2EoOgkp80huAkIBzABwDKlhS7FswCIiByw/ofvFddoOXCC0Iu/J5D0ehiDQiEJ2nPAndQ1ATc0+PZAE10josil2AAQETUi5/w5ZKSfVFSj1aBrG13t7630Bh/4BAapHcMpLi4MjEjuqLTUSBF5LsUGgIioEYcP7Vc0PrHbUDTvM1ZQGs9k8PWH3uirdgynkCQdWg+epPSRQzKAiEa/qgnYABARNeJUWtNeubuUMSAYrYZcJzCN5zIGhkDS69WO4RSSXo+WAxTfxe8gIstFbACIiBqRlyv/FeyYdj2hNxgFpvFckiT9vhWy560HAOp2DAyMSlBSQuhKTzYARESNKC+Xf4hNUGxzgUm0xW6zwlJbhZqyIlSXFqKmvBiW2ipcaTtjvcEHPgGBrgvpYgrf1lD+juIl+BogEVEj7Hb5+++763v4IljNtXV7EBTno+pCHqqK81BdXIDaimJYzbWwWa0NjtUbjND5GOEfGgn/8FgEhMcgIDwW/uHRCIiIg9VUK2wvf/fiPj8PbACIiBrh6+cne2xFfjZiU/oITKMeu82GisJzKD5zAsVnUlF67tQVL/JXYrWYYLWYYK6uQFnu6T/9nt5gREh8CwTFNENQdDMERSVC0nnGDeuqC7lKhos7hAJsAIiIGhUVFSN7bH7aPrQcNBE6jS5us1pMKDx1CHkn9qIk+6RLPpVbLSYUn01D8dk0AIDB6IfQpLaIatUVIfEtNXtXpbaiBJWF55SUEHoeABsAIqJGJLdoKXtsbUUJcg7/jMTuwwQmci673Y6ynAzkHd+L/NTfYDEJ/eDZZBZTDYoyDqMo4zCMAcEIT+6AqNZdERihrd0Psw9sUfQ4CcAZUVkANgBERI3q3KW7ovEZO1YhrFk7t9+u1263o/DUAWTtWotKZbeqncZUVY6843uQd3wPgmKaIaHzQIQltVM7VqMuZB1VekxwOYB0QXEAsAEgImpUu5SOCA4Okf02gNVswpFVn6DnzbPh4+d+K9xtVivy037DmT3rUVWcr3Ych1Xkn0XapsUIiIhDQpdBInbbc4rKCznI2Kl4K+m9AOQtuGiAZ6yqICJyIr1ejxGjlW3jW11aiGNrPseVXoFTQ37qb/jli//gxPqvNHXxv1TVhVyc2roMR9d8hgplz9iFs9RW4+SmJSLWTqwVkedSbACIiBwwYeJkxTWKz6Yh9/heAWmUqy4pwKEVH+LYD1+itqJE7ThCVBbl4Njaz5Hx80pYaqrUjgOg7rm/qUr+PhK/swNYISDOn/ARABGRA8ZPmISo6BgUFij7lJz58yrEtu8FSafOWwE2ixmn96zH2d9+gs1qUSWDsxVmHELJuVNo1msUotsoW7+hRE3ZBRSk/Sai1AYAGSIKXYp3AIiIHGD09cXMu+9XXKe2shSFGUcEJGq6quJ87Fv8Bk7vWe+xF/+LLLVVyNz5PU5uXgxLbbUqGQpO7le66v+it0QUuRwbACIiB9374KOIjIpWXCf/xK8C0jRNwakD2LfodVQUuNczcmcrPpuGI6s/RUVBtsvnLsoU0uhtBbBeRKHLsQEgInJQcHAI/vXvFxXXKc0Rfje3QTaLGakbF+Lo6v+p9klYbabKUhxfPx+5x35x6ZwCnv2bATwqIE692AAQETXBrTPuwohRyt4IMFWWwVRVLihRwyy11Ti4/APkHNnp9Lncnd1mxZlfNyBjxyrY7Tanz1dVnCeizIsA9osoVB82AERETSBJEj7+3zdIbtFKUR1nr1I3VZbhwLfvoPS80L1jNK8w/SBObVnq9DUQZuV/vhsBPC8gSoPYABARNVF4RCRefuN9RTVsVuftqX9xsZ/az/v1ej3CwsKR1CwZyS1aIT4hEaGhYapmAurWBaRuXACrqdZpc9iVNRgWALf+/k+n4WuAREQybN6obF2Wj3+QoCR/VnkhFweWvgNzdYVT6tcnPDwCAwYPQ+cu3dGmbXu0btMObdq1h79/QINjiosvIONUGtJSjyP9VBoO7P8Ve3bvQE21a9YplOedxvEN89Fh7Azojb7C6xt8G/7f7shwAKMBLBCTpuFJiIioCYqLL+Cb+f+TPV7S6eHjHywwUZ3a8mIcWv6BSy7+vfsOwITrJmPI0JHo1KUbdE08rjc8PAK9+vRHrz79//g1U20t9u7ZhW1bNuK7ZYuRmXFKdOw/qbqQi7TNi9F+9C3Q6cVeDo2BIUpLzAYbACIi9/L5Jx+gslL+RTYkLln48cDmmkocXPGhU3f1S0hMwrRb78DUabehdRvxB/AYfX0xaMhwDBoyHE898xx+3bMLSxbOx/KlC2Wfw9CY8rzTSN++Am2GTRF6zHBgRDx0eoOStQY9AIwB8KOwUJfhGgAioiaoranB559+oKhGePP2gtLUsVpMOLJyLqqcdIJf8+SWeP6Vt/HL/pN46pnnnHLxv5wkSejTbyBee/tjHEzNxvOvvI2Y2DinzFV85gQyd64SWlPS6xEc21xpmSdEZGkIGwAioiZY+PUXKMiX/4qXJOkQ17F/41/YBKkbvkFpTqbQmkDdJ/4PP/savxw4iXvu+zt8/fyEz+GIoKBg3HPf3/HLgZN4+tkXEBAg/kTFwvRDwvcJiG7bU2mJMQAUF2kIGwAioib4bO57isZHtu4Cv5AIQWmAcwe3Iz9tn7B6AGAwGDDr3oexfc9RTLnxVugFP66QKzAwCI/Mfhq79qVi6rTbhNc/u2+j0B0Dw5u3h29gqNIyD4nIUh82AEREDtr36y9ISz2uqEazXqMEpQEq8rORvl3sIXHtUzpi47bf8MKr7yA4WPFCNqeIT0jEB5/Mx7wFKxAeESmsrt1mQ/r2FbCYaoTUE3S3ZyoAp7wywgaAiMhBixbMUzQ+LKktQuNbCsliNdfi2A9fiDhn/g9Tp92G9Vv2oGPnrsJqOtPVEyZh844D6NV3oLCatRUlyPj5O2H1otv2gMFP0SuBgQCUn0VdDzYAREQOMJlMWLl8iaIazXuPFpQGOLV1OaqKlR1NfJGPjw/e+fBzfPDJfKc8X3emhMQkLFm1CTPufkBYzZLskyg4dUBILZ3BB7Ht+ygtc7uILJdjA0BE5ID1a1eh+EKR7PFBUYmIaNFBSJbyvNPIObpLSC1//wDMX7QSN0+fKaSeGvz9jJjz/Jt45rk3hL3Kd/a3jbDUitmuOTalD/QGo5ISwwEo23u6HmwAiIgcsFjh7f/mfcYAUH5xstttSP1pESDgnPnwiEgsX/0TRo25WnEtNRl0EiRJwu2zHsTLb38CvUH5FjeW2mpk798sIB1g8PVHdNvuSkpIqNsaWChuBEREdJmM9JPY+8tOHDl0AFmZ6SgoyMfB/b/KrmcMCFZ6AfjDuQPbUJGvfKW6v38Avlny/Z924tMyo15CrcWOG26aAb3egCceuhN2hU1S/sn9iGrdHUHRiYrzxbTvjdzje5SUeALAWAA5AI4C+A3ANgCyd0hiA0BEBODM6Ux8Pe8zrFy+RPgWtDHtekLSKX+VzlxdgazdaxXXMRqN+GrRSvTuO0BxLXeh1+sAS90xv9dNuQX5eTl49bmnlRW123F67zp0Gn+X4nx+IZEIik5UckBTMIDBv//3qb//0wRgK4AvACz7/d8dxkcAROTVUo8fxd2334i+3drg7ddfdMr+87Ed+gqpk71/Cyy1yg7LkSQJ7378JYaOELcg0R0Y9H++nM164HEhCwMrC8+jJPuk4joAENVK+NsVRtRtFrQAwGkADwNw+GQjNgBE5JWqqirx7D8fw/CB3bBqxVLYbDanzBMQESdiS1hYTDU4d3Cb4jqz7n0YN0y5WXEddyOhbi3ApZ7+z6tCXhE8f2i74hoAENGik5A7QQ2IA/AOgCOoWzTYKDYAROR1jh89jFGDe+LjD96C1Wp16lxxHRS/AgYAOHdgq+JP/9179Maz/31FSB53dPldAL3BgLfnfo3wiChFdSsKz6FMwFbLBl9/hCW2UVynEW0AbALwKoArdhtsAIjIq/z04w+4etQApJ9Kc/5kkoSYFOUNgNVsQvb+LYpqBAQE4tN5i2H0dfgOsebo9X99yyIuPhEvvvmx4trnD4u5CxDV2iWbLEmoWzS4FnUbCdWLDQAReY0fVn+H22+ehKqqSpfMF9miI/yCwxXXyU/9FeZq+ccPA8Dsp55Fcgvhr5K7FZ1U/yVt9LhrMXb8dYpql+WeRlWx/EOgLgpLagcff6fs7FufsQDWA6h3T2c2AETkFXbv3I577rwZJlOTFkorktB1iJA6uccUvT6G9ikd8bcHHhWSxZ3pJEDXwEZAzzz/JgIClV14izIOKxoPAJJOh+i2PRTXaYJBAJYC8Ln8N9gAEJHHy805j5nTJ6O2RswhL44Ib56CyJadFNepLi1E6fkMRTVeev19+Pj85e9/j1TfYwAAiE9Iwn1/f1JR7cKMw4r3FgCA+E4DYQwIVlynCcYCeP3yX2QDQEQezW6346F770BRYYHL5tQbfdF2xNTGv9ABecf3AJB/0Rk0ZDgGDx0hJIsWXP4mwKVuv/sBRERGy65trq5AWY6yZgwA9D5GJPcdp7hOEz0E4JpLf4ENABF5tOXfLsTWzT+6bkJJQodxtyMgPEZAMTvyju9VVOGR2Qo3w9GYhh4BAIB/QCBuV7g3QGH6IUXjLwpvniLsEZGDJAAf45JFgWwAiMhjmUwmPP/vp1w2n06vR4erZiCqVRch9SqLclFdWih7fM9efTFsxBghWbRCd4U7AAAw/c77EBwSKrt+yblTQh4DAEBS9+GI6+jSrZiTAMy++C9sAIjIYy1fugDnss+6ZC7f4HB0nfQAYlN6C6tZfFbZq4ozZ90vKIl2XOkOAACEhIZhwvU3ya5vNdWgqihH9vjLNe89Bi36X6P0tMCmeAR12wqzASAiz/X5Jx84fQ690RfNeo1C39v+hbBmbYXWLlHQAAQEBOKaiTcITKMdjd0FmDTlFkX1y3KzFI2/XEy7nuh83b2IaNERUgOvMgoUBuBOgIcBEZGHOnUyFQcUnOB3JT5+gQhNbI3w5imITekNg6+/8DnsdjtKsuWfS3DNxBsQFOTSleZuQy9JsF1h4WTPPgPQsnU7ZKbLa7DKcrMQ31n5FsOX8g0MRZuhk1FbWYqi9EMoy81EReF52CxmofP8bjqAdzyyAdh/NBefLNindowrKi513etIzvLTjiyUltWqHYOcpKhE2bazatuwbrWAKhLCktoguk03BEUnwRgUCt/AUOgMzn+lrqIgG5baKtnjJ02Wf5tb63Q6CWhkh+fx103BB2++KKt+ef4Z2G1Wp+zr7xsYioSuQ/5YIGg118JcUwlLdSXKC7JReOqAonUhv+sNoIVHNgDrtqZj3dZ0tWN4vE8X7sOnC9VOQVS/XT9vVTTePzQKKWOnIzSxtaBETVOed0b2WIPBgAGDhgpMoy2NLAMAAAwcMkJ2A2CzmFFdWoiA8FhZ45tC7+MLvY8vEByBoJhmiOvYDzmHdyD74FZA2WLEEVwDQEQe6fCh/bLH+gaFofuUh1W7+ANQtO1sz979vPb2PwDo0HgH0KN3f/gHNLhNfqNqSotkj1VCknRI6DoEzXqMVFpqIBsAIvI4VVWVyDl/Tvb4Fv2vhq+APfyVqL6QL3vskGGKLw6a5sgdAB8fI3r2kf8KXk2ZOg3ARfGdByIoOklJifZu2wAEBXtv99qY4OB6z3WQxZs/JZDziPwZlaMgP0/2u9o6gw9iO/QVnKjplNwB6NZD3KuIWiQ50gEA6NKtl+w5qlVuAAAgpr38/ABaum0DEBeXoHYEtxWXkCisVmxcvLBaRBfFxYv7GZWjskL+yXl+IRHQ6dVdHmWzWlFTfkH2+DZt2wtMoz2N7QVwUcs27WTPUaN8IZ5iwbHJSoaHuG0D0FrBH4yna9Va3LvG/D6TM7RqI/Z9+KaqNcl/O8WFG7I0qLaiGHabTdZYHx8fjz/2t1GOXf/Ruo38Rqm2olT2WFGMfopONwx02wagU5duaJ7cUu0Ybmnc+InCao0dNwEGg0e+DEIqEvkz6o2sJvmvCTdPbuk1J/81RIJjPUALBR+mrGY3eAW6kQ2PGhvttg0AAFw7aYraEdxOZFQ0hgwVt8AnPCISg4Z4z0lh5HxR0TEYNHi42jE0zargDkZklPzT7rxNaGg49DI/ANltVthtjWw24ObcugF46JF/qL6YyN08/uQcGH19hdb857PPO7xohqgxs598VvjPqLexKLgDEBio6Law53DwrzQl3y+r2SR7rDtw6wYgIjIKTzz9H7VjuI0Onbpgxsy/Ca/bs1dfTJ12m/C65H06du6K22beo3YMzVNye5lvUNWRHOwAlDUAbvAYQAG3bgAA4G/3P4IpN96qdgzVhYdH4MtvlsNodM4Cpdff/hg9e6n/6hNpV3hEJL78ZrnXP38Wwabgk6W/f4DAJJ4vQEEDYLPwDoBTSZKEt97/DBOvn6p2FNXExSdg8Xfr0bJVG6fN4efvj/mLVrIJIFniExKx5Lv1aNFSvZ3zPImk4DVEk4L1Ax7FwUcANTXyz7xQ8ufkDty+AQAAXz8/fPrlYjz97Avw8xd/6pY7GzJsJDZs2YvuLtjYIyY2Dt+t3YLpt98NnXuvDyU3MmT4KKzfvAfduivalIQuYTD6yR5bUV4uMIl2OboRlJI9I/Q+2l7ropm/5SVJwiOzn8bufWmYMfMehIaGqR3JaXQ6Hfr2H4Rvlq7Gsu9/Qly86zZF8vP3x5vvfYqftu/D+Guvh6+f/L+IyHPpdDr0GzAYC75dg2WrNrr0Z9Qb6I3yLyyVlfIvaB7FwY0gKyvkN0xabwA0d/8iITEJr78zFy+9/j52/bwVqanHkJtzHqUlxWpHU8Ro9EVsXDwSmzXHsOGjER3j/FOmrqRTl2748pvlqKyswLbNG5GVlYGcc9moqqpUNRepx91+Rj2ZXsEdgBKN/10ojIRGm4Dq6iqYZa63kCSd6jtGKqXZ9D4+Phg6YjSGjhitdhSPFhgYhKsnTFI7BpFXUfLJMisjHTabzesf4znyBOB0pvxj43U+6u8Y6ehdjoZ4908IEXkkH4P8NxFsVovAJPL4BobC4VVsl6mursL589liA2mMo9fFjFOpsucw+qv/uqXFJH8BI4BqNgBE5HECAuWf815bUSL7JEFR9EZfGAPlX2DST8q/sHkCR//8Mk+lyZ7DLzRS9lhRKotylAwvZwNARB4nIjJK9lhLbTWKz6h/AQ2IkL/G4ujhgwKTaI+j/duJY4dlz+EXon4DUHjqgJLhZ9kAEJHHCQsLV9QEZO5crfqjgIBw+Q3Az9s2C0yiPTYHOgC73Y5fdm6TPYe/yncASs+dwoXTx5WUSGMDQEQeqUPHzrLHluedxtHVn8FcUyUwUdMEhMfIHrtrxzaYzWaBabTFkTsAJ44eQvGFQtlz+IXIbzCVKsvJxKntK5SW2csGgIg8Uv+BQxSNL8o8ij1f/heZu9agIj8bdptNUDLHBEUlyR5bWVmBA/v2CkyjLY6sAdj18xbZ9SVJB/8wFzcAdjsqC88jc+f3SN34jaIjo3+3RbOvARIRXcmIUVfhjVeeU1TDXFOJ07+sw+lf1kHS6WAMCIExIBi+QWEISWiFiOQUBEXLv1BfSUh8C+gMPrBZ5H2SX71yGfr0Gyg4lTZYbY03AOtWL5ddPzAy3nmbANntKMs7jbLcLFQWnoO5ugLm6kpYaqthtwtrQrMAHHRgq4SG5RRboNfrRQUiIhLGbrejd5dWOHsmy6nzhMS1QLPeoxHdppvw2geWvYuSsydljY2KjsGh1HMwyDzvXssqa8ywXKEJOJ2ZjjEDO8l+2yOhyyAk9RgpN1697DYb8lN/Re6JPagtd/pmTi8BeJqPAIjII0mShOm33+30ecpys3B09Wc4vPJj1FaUCK0dntRO9tjCgnxs2bRBYBrtsDZyYf/u228UveoZEtdS9tj6VBbl4OiaT3F673pXXPzNAD4CuBEQEXmwmbPuR1CQazZsKco8in2L3kBF4TlhNcOayW8AAODreZ8JSqIddvuVFwFazGasWPyV7PqSXi/0sU/xmRM4vu5LVBXnC6vZiK8AnAXYABCRBwsLC8dDjz7psvlqK0pwYOk7qLqQK6ReSFwyfPzkb2q0bs1KpJ44JiSLVjT2CuCq5QtxLvuM7PohscnQKdhp8lIXTh/Hya3fuvKV0woAcy7+CxsAIvJo9z/0OFq3UfZJuikstdU4vOoTWGqVv0Io6fSIad9T9nibzYZ33nhJcQ4tudKzf6vVio/ffU1R/chWXRSNv6iqOA8ZO1Y6vmuRGM8COH/xX9gAEJFH8/Xzw8efL4DR6LrDW6pLCpCxY7WQWrEd+ioa/92yRUhXsOWt1tiu8Lrm2pVLkZku/3uhNxgR3jxF9vg/2O3I3LVa9hseMv0I4J1Lf4ENABF5vG7de+GFV9916Zw5h3egokD5eoCQuBaKtgW2WCz45+yHFOfQiobuAFRXV+GNF+fU+3uOCk9Ogd6gvJEsOLUflYXnG/9CcU4BuAXAn7ojNgBE5BVuv/NvePxJZReAprDbbTh3YKuQWrEpfRSN37JpA1avXCYki7uzN9AAvPvafxU9+weAqFZdFY2/KPe4SzdpygEwHsBftj1kA0BEXuPJf/0X/5zzvMvmy0/7DRblO7YhrlN/6PTK3uef889HUVFRrjiLO7Pa7PVubJN6/Ai+/PR9RbX9QiIRHNdCUQ0AqCjIRnWJy1b8ZwEYCqDezSR0AGrlVi4rK5U7lIhIFY8+8S/MW7ACISGhTp/Lajah4KSiE9sAAL6BoYjr2E9RjXPZZ/Hog87fF0FN1nqe/9fW1mD2gzNhUXg2QkKXQZAkSVENAChMd9lJjdsB9Efd7f966QDIbgnPZ5+VO5SISDVXT5iEHzbtRr8Bg50+V97xPULqNO97FSSdsp1XVy5fgq++/FRIHndktvz18/+/n3wYJ44eUlTXGBiKyJbyD5e6yG614kKW01/LrAHwTwAjAeRd6Qt1AC7InWXrlo1yhxIRqaptuxSsWrcN78+dh+QWrZw2T8m5U6gpk/3X7B/8gsMR276X4jr/evLvOHxwv+I6bscOWC67A7Bs0TwsWzRPcemELoMUN18AUJydJuSRUAPsABYD6ALgZQCNbi6gAyD7nYglC+df8ZULIiJ3JkkSbrx5Bnb+dgKffLEIQ4aPgk4neGmU3Y68E2IWfTXvMxaSpCxfTXU1bpl6DU5nZQjJ5C4uv/2/ffOPmPPEg4rrGgNCEN26u+I6AFCUoexORANKALyPugv/NFzhlv/l9AB6ApB1ZFRBfh5atGyNTl3EH4JBROQqer0eKR0746abZ2Dm3fejU+euiIqOgV6nR01tDWqqqxXVN1WWIrHbUMU5ffyDYK6pRHnuaUV1Kisq8OO6NbjuhhsRGBSkOJc7MFltf5wCeOjAr5g1fRJqa5T9uQFAiwHXKHoN8yJLTRWyflmrdOMfK4BcALsBLAXwHwAPAlgNoKCpxSQAkwCskJsmKCgYa37cgQ6dxOyORETkbky1tbj2qiHYv0/+J/keUx9BaGJrxVkstdXYM/95mCrLFNfq3LU7lqxYj6joGMW11FZRY4bVZsfRw/tx57RrcaGoydfDvwiJb4mUMdMFpANyju7C2d8UPTafi7qLvbB9g3UAtqCuq5CloqIcUyeNxa97donKRETkVoy+vrjpltsV1Tjz649Cshh8/dF6yPVCah05dADjRvZHZobDd43dks1uh9Vmx+4dW3Hb5KuEXPwlnR7JfccJSFd31G/eCcWLQT+DwIs/UNcAlADYrKRIfl4uJo0fjmeefAQF+VdcdEhEpEnXT70ZRl9f2eOLMo+ioiBbSJbYlF4Ia9ZWSK0zpzMxcdxQHDmk/HVFtZgtNqxZuRR33XwtygW9nh7fqT/8Q6OE1CrMOKj0js0xAL8KCXOJiy813gZgvoiCer0effsPQucu3REdEwu9XvnKSSKixhh9fREVHYPeffo7bVX/zOmTsWbVctnjY1P6oMO4GUKyVJcU4LcFrwpbVe7n748XX30X02/X1l4BJpMJc56ejS8/fR92QQfrBITHoOP4uxRvvgQAsNtxeNVcVJcquivxDwDKTjGqx8UGIABAJgDtPwgiIq/Xq09/zPk9e/DJAAAdtklEQVS/lzFw8DChddetXYUZ066TPV6SdOh7xxxhnyzz0/bh2NovhNS6aMqNt+LVtz9CUFCw0LrOcOZ0Ju6+/SYcULA243J6gxEdr7lL2J9R8ZkTOLllqZISNgDJAMTcPrrExY/nZgAGAKNFT0BE5Go557OxZOF8+PsHoG//QcLqJrdohflfzEVVVaXMCnWfUCNbdBSSJzAyHqaqCpTnKdvj/lLHjh7G4gXzEBkV7bZveFksFnw29z3cPeNGnDmdKbR2ywETEBrfUli9zJ2rYKpStAXzegAfCYrzJ5fenz8IYAaAEGdMRETkSna7HVs3/4ikZsno0rWHkJp6vR7l5WXYtWOb7BpVhTlI6DpYyKlyABDerB2Kso4KeSvgooqKcqxd/R32/7YXPXv3Q3h4hLDaSu38eStum3YdliycD5PJJLR2dJvuQl7XvKiiIBvnDsr/WfndI2hgL3+lLt1RohzAY86YhIhILf/6x9+FLk6+654H4evnJ3u81WJC3glx67l0Bh90nnA3jIHiP7tt3LAWg3p3wAP3zEBa6nHh9Zti+9ZNmHztKEwaPxwnjh0RXj8oOgnJ/a4WWjMvVfGf8zEAawVEqdflK/SOAugMQMz9KSIilZlMJoSFhaP/wCFC6gUGBiHnXDYO7v9Ndg271aL4cJ9LGXwDEN48Bflpv8FmFfqmGGw2G44dOYQv//cRjh09jOCQEDRPbil+x8R6VFVVYuXyJZj9yL14+/UXhN/uv8g/NBopY6ZD7yP/LY+/sNuRtXuN0j+PJwE4bd/m+o42CgWwD4DzNscmInKhvv0HYfWGn4XVy0g/iYG9UmRvha73MWLw/a8LOV3uUiXZp3Douw9hsyg7+a4xsXHxmDz1Flw7aQq69egNg0HAavnfVVVVYteObVjx7SKsWbUclZUVwmrXxxgYgo7jZgq/g1JVnI8j389VUuI8gJYAxD7nuERDP31tAfwMvhVARB4gNi4eh9POC615521TsHrlMtnjB9z9HHyDwgQmqlNw6iCOrfkcdrtrzmkJDg7BgEFDMXjYSHTq1BWt27ZHQmKSQ2MtFgvOnsnCqZOpOLBvL7Zv3YR9v/4i/Nl+Qwy+/ugw7nb4h0YLr118NhUnNy9RUuJJAK8KilOvK7Wf/VG3+pCLAolI0yRJKigutrUXWbNv3/bD0tLSZG+j3ue2pxEYGS8y0h8KTh3E8XXznH4noCGBgUFIbtkKkZFRCAwMqvtPUBBKS0tQWVGBysoKFBUWICsz3WUX+8sZA4LRbtQtCAh3zufc/LR9yNq9Ru5wC4BYKDit1xFXum+zG8AI1C1AUH4SAhGRSux2e1ZYmFQssKQPgIeUFBCyyUwDott0g8+k+3Hk+09gqVV+IE5TVVZW4NgRp5x8J4RvcDjaj74FfsHOe7tB0il6vGMA8DSA2WLS1K+xVRz7UHcnQNwuC0RErrdecL1XAYyUP1yCMcC5N1fDktqgx42POuUxg5YFRsaj09V3OvXiDwAGo7/SEo8DuFFAlAY5sowzC8Bg1G1DKHZ5KRGR89UA+FRgvaEAHlZSwD80EnqjwBXnDQiMjEePGx9BUIxjz+Q9XURyB6RcNQMGvwCnz+UXGimizIdw4h14RzfqtwL4EcB3AFJQtzKRiEgLngbwg6BaetSdva7oL+XYDn2E7QbYGINvAOI69ofVVIOy3NMumdPdSHo9mvcei+a9x0Cnc835ND6+Acg9sQd2Za8BBgCIArBSTKo/a+p3Ih/APAA/oe4NgdZw7C4CEZEa3gXwrMB6MwEoPi2n1aBrhe017whJp0NEi44IikrEhdPHhe8V4M58A0PRbuTNiEju4NqJJQk1pUWoKla8CVUXAMsAKD/j+DJyW6EzABai7rbaud9/LR6AmL0tiYiUyQJwL4DXBdaUAHwDQNE7Y4GR8Wg1eJLwPQAcERARh+h2PVBZdB41ZU5dYO4Wotv0QNsRN8IvJFyV+X38AlBwSvExyzoA/nDCXQCRP4E+qHs80B5AC9S9PsiGgNzFeNR10k3WolUbjB0/SXAcbVu2aB6KCmV/IPkZwA6BcS5VAGAPgJ2oe3Qp0ggAm5QW6Xj1HYhp30tAHGWKMo4gbdNi1FaUqB1FuIDwWLTodzWCYpqpHQWpGxeg9Hy60jLVAJIg+LVAke+hmAEc/v0/RO5msNyBo8dNxBPPvCAyi+adycrAutXL5Q7PAvCUuDQuc5PSAmFJbRHTvqeILIpFtuqMvs3a4fQv63B230+wy9zV0J3oDD5I7DoUcZ36Q5Lc4+l0ct+rcOT7T5Q+dvEHMBHAl0JC/c49vkNEzqUDIPtc087d3OMvbHei8Hui/sdfeSYqGWzwDUD7MbdA7I1XZfQ+RrQaPBF9b5+DhC6DILlgf39n0BuM+H/t3XmYXFWZx/Fv9Z7eku7OvncSspBOyAqyhYAsYVgUUVEUcBl1RIcZnfFx5p+Zcf5wRmd0dBZ9cFBGRREZUJEAgoQIhBAgQJbu0Fk6nU7Sne703uml9vnjdI8ha9W9p+pW3fp9nuc+CaHPqZPqTt33nvOe90xZcjEX3fZFptVdljE3f4CSyhpqL7vFRldWOjlZ6ipRiGSOxUC508Z1yxUAnMrle7IIqMCcQJotajF5To4EAnks2XB3WhP/kjFu/EQWvvcjzF57PUfe3ETr7lc8qyKYjPzCYiYvWs20usspKHJ+QmOq1dTWMdTTQdtuVytfl9sazxgFAJILHD9xVlSOZ/ZcnYt1qroVqwgEAsTjcSfN84AVwEt2R5VSa9w0nvueG6mpXWprLClTUlnNgvUfZNaaa2mr30r7ntcZ7rWefO5a+aSZTJy3nJp5y8gvzI5Us5krr2ag/RAnjh9x2sUUTB6A4w5OpQBAcoHjAKBu+UpPsrUz3fjxVcyYNYcjLc1Ou1hNdgUAjqPAorJKZq1+r82xpFxx+QTmXnIjcy+5kYGOw7Q3bKO9cTvh4dSezHcuRWWV1NTWMWnBCkoqrRTZSatAIMDsNdfR8PSDbrqZhwIAkaQ4fnpbqun/s6pbvsptAJBNZjhtOHH+cvIKCm2OJa0qJs+iYvIs5q/7ACc6j9LT8g49LY30tTaldJkgv7CY8kkzqJxaS+W0Wsqqp0KWB+Plk2YybsIkN7Mqjn8Oz0QBgPidEgBTpO6iVW52AmRbAOC4sHtZ9VSb4/BMIC/v/4OB2WuuIxoJ0d92kBMdRxnu7WCop52h7nZCQ0mmdgQClFRUUVo1hdKqyZRWT6F88myKy8YTDXtzUmAqlU+a6SYAsFrDWAGA+J0SAFMkxxIBndePzfKn1rPJLyiiatYiqma9+5TlSHCY0GAf0XCQSHCESGiEaDhILBImv7CY/KJi8guLKSgeR0FRCcXlE06bIYmGggRP9KXzr5M2LksRW71nKwAQv1MCYIrUXbTSbSLgRZiiQNmg32nDoZ4Om+PIeAXF4ygodn4SXjwWJTSYLXFh8kbcFV6yGhVlzmZJkdRwHAAsXbZCCYDnMH5CNdNnznbTRTYtA3Q6bnhgJ/GY7aKEfhUnNNhPPJ79RYnOJDwySH9bk5surG7JUAAgfud8B4DW/88rhwoCNTptGBzo4cjbf7A5Ft8KDw8RDWd+/QGnDm93XXHxHVtjAQUA4m+uEgC1A+D8XOYBZFMAsNNN46aXn6Cnxepnt+/EIiHCI4NeDyNl2uq30nlgh5suuvjj4XtWKAAQPxtLNHNECYDn5/I9cpWgmWaNQKvTxvFYlF1P/ICeFscTCb4Wj8UInugHR+kkme/Ynm0c3v57t91stjCUd1EAIH7m+AmzvKJSCYAJqLtopZvmrmZoPPCsm8axSJhdT9xPz2EFAe8SjxMc6PPFYURncmzPNlped/WjM+Z3Njo5mQIA8TNXCYB5WXowSjpNqKphRu4kAv7MbQexSJhdv7EfBMTjMUJDAwx2H2Ows3X0iN9seJyOExzsJxZN/7p/PGbes6HuY4z0dxEJDll/DYs3/yDwmI2OTqZtgOJnSgBMg6UXreLokRanzbMpANgEHADmu+lkLAhY9r7PnbaHPhmR4DAdjdvpbNpFf2sTkdDIu/5/QVEJFVPnMnH+MqYsXkNBsdUaMlaEh4eIhoJpe73Q0ACd+9+mr7WJE51HT9udUVRaQfnkWdTU1jFh5gWuThW0ePMHeBzottXZGFcVCUQyWB7wHaDYSeO7P30vC5fU2R2RT7U0N7H15RecNi8AvmdxOKkUxzyJ3ey6o1iM4/veonLa3KRPCIxFwhx67XfUb/wRnQd2MNx7/IxnzceiEUb6OulubuDojpcID/VTWj3V1R59myKhEcJD6Un6G+xqo+WN52h+dSP9bQcJDfbBGepXRMMhhnuP091cT+f+HRSWlFFaNSXp17N8848DHwfabXU4Rpucxa8WA3ucNn52y25q519gcTj+9dILz/Gpjzq+J0aB8UC2pH8XA7sAKz8ceQWFSc0EDHa10fDUgwx2tTl6vUBePpMXrWb2mmspq3F8urFr0XCQ4EA/qV6m6G87SOvuLfS3HXTcR+W0Whasuz3hwMnyzR/gYeBOmx2OUQAgfvVx4KdOGpZXVLK9sV05AAnq7eli7ZLpbrq4AnB1UHqa3QA8Y6uzvIJClt36WapmLz7n13U3N1D/5A+JRmzUxw9QU7uU2WuvZfx0VysaSYuGQ6bMr7MKkucVj8fpadlD2+5XHAdKpyquqGLh1XcwbsKkc37dsYZttLxh9eY/gHmYcbwD5Vy0BCB+9UngPU4arlxzCbd/5B7Lw/GvknGlPP6LnzDQ77hK6Q5gm8UhpdoBzNnsa210Fo/F6Gh8k4LCYiqmzD5t3TkWjXJ4+/M0Pv/wGaf6nRru7eBY/at07H2LaGiEksrqlC8PxCLhlN38h3raaavfysFXnqBz/w6rRxdHQyN0HdhJfmExZdXTTqsQGotGaNn+HK07X7T2mqM+QwqDYyUBil8pATCNcigRcMyXMQGA46OmTxaPRdn/4uMceesFJs5fzriqyQAMdbfTeWDnaFZ/agx1H6Npy29peuVJqmZewJQlFzNpwQryixylz5xVLBJhZMDuzT88fIKug7vpPLCToR7rS+TvEo2EOPTaM7TVv0L1nAspq5lGPBZjqLuNroP1qShi9AAOZzETpQBA/CgPWOG0sQoAJa9u+Sqe3fhrp82zMQAYAW7CPJ0tsNapl2WD43F6Du+l5/Be9r3wKJMXrWbGinWUT3R/BH0sOvbkb2evf1/rAToat9N7ZF/azw0IDfZzrOHVVL/M08C9qX4RBQDiRwtxUQFQJYCTZ6EiYBnZkwg4pgO4DlOhbY63Q7ErGg7StvsV2uq3Mn3ZFcy7/BbHywOxcIgRS9P+IwPdHNr2DH2tB1z3lcE2Ax8CUl4cQVlO4keOnyjLyiuYU5vepCg/cFkRMJ/sqgh4smZgHeDqiLeMFY/TuvMltv/8mwx2H0u6ucn2t3Pz72s9QP3GB/x+838ZuIU0BcMKAMSPXFQAXKnsfweqqicyfcYsN11k4zLAmBbgvcAhrweSKsN9nbz1yLcZ7Ew8GT0SHCE40E/cwla/ruZ69j7/cFqLBnlgM7ABsJe9eB76pBM/cpEA6OpJNqfl0NHAZ9IMrB/91ZciwWF2/vr7501IjGOS80KDA9jY5z/Q0ULTlt8QT9G2wQyxGVNgKq3LYAoAxG8CuJhOVgKgcy5zJ7I9AABz878Kvy4HAMETvTT+/uGzf0E8TuhEH+HhIWzc/GORME1bniAejZ7/i7NXWqf9T6YAQPxmIaaynCPaAuicy+BpCSYRMNuNLQc0ezyOlOlubqBz/+nn2sejUYb7e6xO0x/d8SLBgR5r/WWgzaR52v9kCgDEbxw/SZaWlTOn1tqOrpyzbIWrACAfWG5pKF5rxuczAS2nnG0fDYcY7u8hbrFQUTQcomPfdmv9ZSDPnvzHKAAQv1ECoEeqqicybfpMN134YRlgzNhMwD6vB5IK/W3NnDh+BOIQHh4kONBrbY//mK6Du/2c9PccHj75j9GnnfiNEgA9lOOJgKdqxpxz8EYaX/Ml4EbgV0BKK+R0NTcwMtBNeDg1D7Bp2O43hDmJ8mZMwJYuP8ODhL8zUQAgfhJAFQA95fI99FsAAKZY0JXA91P8OjHg3zCzDs8AH8DkVfwAU7XQut6WvcQi9qb8T3Wi43Cquu4EvgbMBb4AbMSUdf5dql5w1Ajw55iDymyc6OSaTgOUTDYJUyVuETAdkyQ2ASgHCs/w9cXArU5f7NIr1jOhqsZpcwFajx5mx5uvOW0ewTy5nkkQ88TUi5k2bQHeAfaO/lk2uB74D0yiqk0NwOeBs51EMwW4D3OwzLmPs0tCafVU6m7+jK3u3iUei/L6Q1+33e0+4LvAg5in/1MFgE8B/4TF92nU85ibv+MjylNBAYBkkguBa0avK4GJ3g5HssRRTDb1JuAFwPnh76lXhDmp8qtArcu+9gDfxBwYk8g+uULgT4BPjP5a5ObFC0vKWPnhL7vp4qxCg/28/dh3bXTVB/wS+DHwContTazAHPb0eUzw5MYW4OvAUy77SQkFAOK1mcDHMJG37ScjyU0NwE8wH/rJ169Nj3xMoPsx4AZgaoLt2oDfAo9ggh2nm+0nAncC9wDO1m0CAdbc+Tfk5ds/Umago4U9z/zYafMYJsnuJ5gZpWGH/RQBt2GWUzYAlQm2a8AsKzwE7HT42mmhAEC8cg3wt5g1S/0cSipEgF9jnsDe8ngs57MEWIZZ8pqIudkEMWvFrZgthW8AtjPjCjFr047ywZZs+AQVk12VgD6jtvqtHD5lq2EStmPpmOaT5GO+RysxuQPTRv8MoB8TmO0B3h79fVbQaYCSbhuAvwMu9Xog4nsFwAeB2zFTsF8DXvd0RGe3B2/Wh8NAFw7XvLsP7k5JANDdXO+meeIHFiQuCuwevXxDuwAkXWZgpuSeRjd/Sa8AcBOwDfMzaDvBK9s5rlVwfP/b1iv19RxuZLDL1UP0Xltj8TsFAJJqecBXMP8o7/J4LJLbApifwQbMViwxHJfbi0Uj7PvD/xIZOVNSffKGuo9xcOuTbrvxdflAm/LP/yUijk0CHgXu5czb9kS8UIpJ7JoPPIuZBs9lpcCHnTYOD5+gu7mB/MIixk2YRMBBNc1IcJi2hq00b91INOSqbEEc+BJmXV7OQ8lXkipXYDKVp3s9EJFzaMAEA41eD8RDFcBxTB0NVwJ5+ZRUVJFXkHi8HwmNmCOG7Rz3m4oEQBFJwq2YQhtxXbqy4OoGLiO3PYr33wcb15dsvzEikrh7MFOqXn8Q6NKVzHUCUxwnV12N998Dt9cQUG37jRGRxNyFKcLh9QeBLl1OrhCmKE+u2oL33wM317/af0tEJBG3oCd/Xdl/DZK721SvInsD+B5UOlzEE5eiNX9d/rnacV+nP1v9CO/ffyfXn6bizRCRc6vCnHvu9QeALl02r9exkBWfhaowhyl5/f4nc21EO9oc0ZsmbgQwB5PclKoXyC8oYPHSVdQuvJAZs+dRVTOJkpJSiopLUvWSvhWNxQlFYl4Pw5Hg8BAjw4P0dndy5NA+Du1roGnfbuKxlP59/h34i1S+QIZaCbyMqQ+Q6fYDF2OWACRJCgDEjfsw52tbVTKulPU3vJ/rb/0oqy5Zx7iyctsvkbOi0TjDwShxrwdiQX9vF2+9+gK//+3Pef2lZ4lErNfziWNyWzba7jgLXIcJ7jN5FqQdk7eQyzUcXFEAIE7NwBxeUmGrw/FVNdzxyfv48D1foGJ8la1u5RSR0SDAT7o62vjlg9/myUceIGipLO2og8BSnB8pm81uBn4BlHk9kDM4hDlY7B2vB5LNVApYnHoAp+eInyIQCHDjBz7Ot374BJet30BxyTgb3cpZ5OUFCATMbIBflJZVsPaK69lw2z30dR+nqXGXra6rMDMBL9jqMIvsBZ4DbsQcT5wptmJmKJo9HkfW0wyAOHEVsNlGRxMnT+Mfv/sQqy9db6M7ScJwMErER0HAyTY9+Qu+87UvMjQ4YKO7ILCY3L3hVAP3Y45W9lIE+AbwD6O/F5c0AyBOPADMc9vJorpV3P/LzcxfVGdhSJKsgvw8wj4NAGoX1nH5tbfy6uanGBzoc9tdAVBCbuYCgFn+eBR4DTPr58Vxys8Ct2HOF8nOTNYMpBkASdYlwKtuO1l58Tq+9aPfUFaeSTOLuScSiTMc8lc+wMk621v5yqc3cLjJdZ5YEHN64FH3o8pqecD7MQnAV5LaI+VHMImI38bCZ46cTgGAJOtXmA8AxxYtXcn3H9mkm3+GGBqJEo35cyYA4PixI9z30XUcb3d97/4W8NcWhuQXszAHf60H1o7+t5uAIIzZ1rcV2AQ8CbievpGzUwAgyZiMeQIqcNpBVc1kHnpqOxOn6JTgTBGNxRka8e8sAMD+PW9z351XEQq6Omu+A5iJuVHJ6Uowx39PILl7SxjoBVrR2n5aKQdAkvEZXJyYFggE+Mb9j7HwwhUWhyRu5QUCRGNxS8exZ6bqSVOpnFDNtj887aabMsw6+F47o/KdCKYgT1uSVzvmSV9r+2mWyvUb8Z+73DS+6fa7ueTK62yNRSwqLvT/R8HNd3yWZauvcNvN3TbGIpIJtAQgiZoBHHHauKy8ksde3EtVtRcJxJKIweEoMT9PAwBNjbv43O0XuykhPIDZFqepasl6/g/7xZZr3DS+/a4/080/wxUU+P95YN6iZVxx7fvcdFGBSXgTyXoKACRRVzttWFBQyEc+lYtnqmSXwnz/BwAAd3z6r9x24SoYFskUCgAkUY4XTy9dfwM1k6baHIukgCkR7P8gYPGytcyZv8RNF64TCUQygQIASUQxLir/XXvzHRaHIqlUkCP7gtbf+CE3zV1FDyKZQgGAJGIBDreMBgIB1l6uGdNsEcjz/wwAwMr3OF7RAlPwptTSUEQ8owBAErHIacOZcxZo+j+L5OfAEgDA4uVrKSxyfNR9HnCBxeGIeEIBgCRimtOGcy9YbHMckmI5MgFAQUEhM2bPd9OFolrJegoAJBHlThvOdPchK2mWIxMAAMyYs8BNcx1kIVlPAYAkosJxw8oJNschKZc7EUBZxXg3zR3/mxDJFAoAJBFlThuWjFOuVDYJBHInBBhX6vjHGlzMiolkCgUAkoig04b9fT02xyEpFo+Dv4sB/1F/b7eb5o7/TYhkCgUAkogBpw23b91scRiSanGfnwUwJhaNsvONl9x00W9rLCJeUQAgiTjktOGuN7fy+pZNNsciKRTLjfs/zzz+P3R1tLnpotnSUEQ8owBAEvGOm8Z//5d30bx/j62xSApFIv4/kn3X9pf53j9/xW03jTbGIuKlXMn3EXeKgG5cJAOWlVdyz71f5abb72bilOn2RibWxIGhoQh+DQFaDzfx5CP/zeM//U8i4ZCbrt5B5YDFBxQASKKeBjbY6Ki0rIL8ggIbXYltPl0CCIdDjAwP2uruv4Av2upMxCv6FJZEPYqlAGBo0HFOoUgmeMTrAYjYoBkASVQF0Ir2P0tuO4A5B8CncyWSS5QEKIkaAO73ehAiHvsXdPMXn9AMgCRjKrAXlUGV3HQQk/ynIkDiC47OeJecdQLz4XeD1wMR8cA9QIPXgxCxRTMAkqwCYBNwpdcDEUmjnwJ3ez0IEZsUAIgTM4E3gCleD0QkDeqBSwBr+whFMoGSAMWJI8D1QK/XAxFJsVbgJnTzFx9SACBO7QRuBnTcn/hVM3ANLs7CEMlkCgDEjS2YXIB9Xg9ExLJXgctRzX/xMQUA4lY9sBqTJCWS7SLAN4F1mOl/ERFJwNXAm5hCKbp0Zdv1PHARIiLiSACTG7ARCOP9h7ouXee6hjG1/S9HJMdoG6Ck0hRM0aBrgGXAIlwcKSxiQS+mmuWbmHoWz6HdLJKjFABIupViDhTSoUKSTv2YSpYjXg9ERERERERERERERERERERERERERERERERERERERERERERERERERERERERERERERERERERERERERERERERERERERERERERERERERERERERERERERERERERERERERERERERERERERERERERERERERERERERERERERERERERERERERERERERERERERERERERERERERERERERERERERERERERERERERERERERERERERERERHLX/wG4m75N7GSG3AAAAABJRU5ErkJggg==;imageBorder=none;" vertex="1" parent="1">
          <mxGeometry x="580" y="170" width="82" height="82" as="geometry" />
        </mxCell>
        <mxCell id="Z7AK_8LHHmYPdhEJI3sR-37" value="" style="shape=image;verticalLabelPosition=bottom;labelBackgroundColor=default;verticalAlign=top;aspect=fixed;imageAspect=0;image=https://cdn-icons-png.flaticon.com/512/5968/5968364.png;imageBorder=none;" vertex="1" parent="1">
          <mxGeometry x="170" y="-414" width="90" height="90" as="geometry" />
        </mxCell>
        <mxCell id="FzRp09YzNY7rHZB96KWM-1" value="" style="shape=image;verticalLabelPosition=bottom;labelBackgroundColor=default;verticalAlign=top;aspect=fixed;imageAspect=0;image=https://cdn-icons-png.flaticon.com/512/1503/1503151.png;" vertex="1" parent="1">
          <mxGeometry x="840" y="-561" width="71" height="71" as="geometry" />
        </mxCell>
        <mxCell id="FzRp09YzNY7rHZB96KWM-2" value="" style="shape=image;verticalLabelPosition=bottom;labelBackgroundColor=default;verticalAlign=top;aspect=fixed;imageAspect=0;image=https://static-00.iconduck.com/assets.00/apps-jira-icon-2048x2048-u2czanhx.png;" vertex="1" parent="1">
          <mxGeometry x="850" y="-1190" width="130" height="130" as="geometry" />
        </mxCell>
        <mxCell id="RjbLrCM3lHyPYPsWqJDd-1" value="" style="shape=image;verticalLabelPosition=bottom;labelBackgroundColor=default;verticalAlign=top;aspect=fixed;imageAspect=0;image=https://global-uploads.webflow.com/6203daf47137054c031fa0e6/64071d4ee3e10617c9106129_consul.png;fontStyle=1;imageBorder=none;clipPath=inset(14% 11% 13.67% 11.67%);" vertex="1" parent="1">
          <mxGeometry x="210" y="-1110" width="74" height="69.2155172413793" as="geometry" />
        </mxCell>
      </root>
    </mxGraphModel>
  </diagram>
  <diagram id="ZcQA5NICXUtGj4muNmJQ" name="Overview">
    <mxGraphModel dx="1009" dy="2180" grid="1" gridSize="10" guides="1" tooltips="1" connect="1" arrows="1" fold="1" page="1" pageScale="1" pageWidth="1169" pageHeight="827" math="0" shadow="0">
      <root>
        <mxCell id="0" />
        <mxCell id="1" parent="0" />
        <mxCell id="zjYQGKLNK6lwTNudWq2m-3" style="edgeStyle=none;curved=1;rounded=0;orthogonalLoop=1;jettySize=auto;html=1;entryX=0;entryY=0.5;entryDx=0;entryDy=0;fontSize=12;startSize=8;endSize=8;" edge="1" parent="1" source="pfsjJk7ZXHmYuy9XdlPt-1" target="zjYQGKLNK6lwTNudWq2m-1">
          <mxGeometry relative="1" as="geometry" />
        </mxCell>
        <mxCell id="zjYQGKLNK6lwTNudWq2m-5" value="Init private test env" style="edgeLabel;html=1;align=center;verticalAlign=middle;resizable=0;points=[];fontSize=12;" vertex="1" connectable="0" parent="zjYQGKLNK6lwTNudWq2m-3">
          <mxGeometry x="-0.1612" y="3" relative="1" as="geometry">
            <mxPoint y="4" as="offset" />
          </mxGeometry>
        </mxCell>
        <mxCell id="pfsjJk7ZXHmYuy9XdlPt-1" value="" style="shape=image;verticalLabelPosition=bottom;labelBackgroundColor=default;verticalAlign=top;aspect=fixed;imageAspect=0;image=https://cdn-icons-png.flaticon.com/512/1503/1503151.png;" vertex="1" parent="1">
          <mxGeometry x="40" y="-1330" width="51" height="51" as="geometry" />
        </mxCell>
        <mxCell id="zjYQGKLNK6lwTNudWq2m-4" style="edgeStyle=none;curved=1;rounded=0;orthogonalLoop=1;jettySize=auto;html=1;entryX=0.5;entryY=0;entryDx=0;entryDy=0;fontSize=12;startSize=8;endSize=8;" edge="1" parent="1" source="pfsjJk7ZXHmYuy9XdlPt-2" target="zjYQGKLNK6lwTNudWq2m-1">
          <mxGeometry relative="1" as="geometry" />
        </mxCell>
        <mxCell id="zjYQGKLNK6lwTNudWq2m-6" value="Get ticket information" style="edgeLabel;html=1;align=center;verticalAlign=middle;resizable=0;points=[];fontSize=12;" vertex="1" connectable="0" parent="zjYQGKLNK6lwTNudWq2m-4">
          <mxGeometry x="-0.1013" y="2" relative="1" as="geometry">
            <mxPoint as="offset" />
          </mxGeometry>
        </mxCell>
        <mxCell id="pfsjJk7ZXHmYuy9XdlPt-2" value="" style="shape=image;verticalLabelPosition=bottom;labelBackgroundColor=default;verticalAlign=top;aspect=fixed;imageAspect=0;image=https://static-00.iconduck.com/assets.00/apps-jira-icon-2048x2048-u2czanhx.png;" vertex="1" parent="1">
          <mxGeometry x="284.4" y="-1530" width="40" height="40" as="geometry" />
        </mxCell>
        <mxCell id="zjYQGKLNK6lwTNudWq2m-1" value="cpanel" style="shape=image;verticalLabelPosition=bottom;labelBackgroundColor=default;verticalAlign=top;aspect=fixed;imageAspect=0;image=https://cdn-icons-png.flaticon.com/512/5044/5044729.png;imageBorder=none;" vertex="1" parent="1">
          <mxGeometry x="280" y="-1327.8" width="48.8" height="48.8" as="geometry" />
        </mxCell>
        <mxCell id="QC01RMZOQtUrT2CHQRvk-5" value="" style="group" vertex="1" connectable="0" parent="1">
          <mxGeometry x="500" y="-1524.75" width="100" height="39.5" as="geometry" />
        </mxCell>
        <mxCell id="QC01RMZOQtUrT2CHQRvk-3" value="" style="rounded=1;whiteSpace=wrap;html=1;fillColor=none;dashed=1;" vertex="1" parent="QC01RMZOQtUrT2CHQRvk-5">
          <mxGeometry width="100" height="39.5" as="geometry" />
        </mxCell>
        <mxCell id="uPnvRkUBpjcK3dl_ceuM-1" value="" style="shape=image;verticalLabelPosition=bottom;labelBackgroundColor=default;verticalAlign=top;aspect=fixed;imageAspect=0;image=https://upload.wikimedia.org/wikipedia/commons/thumb/0/0a/Apache_kafka-icon.svg/1200px-Apache_kafka-icon.svg.png;imageBorder=none;" vertex="1" parent="QC01RMZOQtUrT2CHQRvk-5">
          <mxGeometry x="35.5" y="6.5" width="28.5" height="28.5" as="geometry" />
        </mxCell>
        <mxCell id="uPnvRkUBpjcK3dl_ceuM-2" value="" style="shape=image;verticalLabelPosition=bottom;labelBackgroundColor=default;verticalAlign=top;aspect=fixed;imageAspect=0;image=https://static-00.iconduck.com/assets.00/rabbitmq-icon-484x512-s9lfaapn.png;fontStyle=1;imageBorder=none;" vertex="1" parent="QC01RMZOQtUrT2CHQRvk-5">
          <mxGeometry x="70" y="9.5" width="18.91" height="20" as="geometry" />
        </mxCell>
        <mxCell id="uPnvRkUBpjcK3dl_ceuM-3" value="" style="shape=image;verticalLabelPosition=bottom;labelBackgroundColor=default;verticalAlign=top;aspect=fixed;imageAspect=0;image=https://assets-global.website-files.com/62a8969da1ab56329dc8c41e/6458c80c31db957ee94a0805_featured.svg;container=0;fontStyle=1;imageBorder=none;" vertex="1" parent="QC01RMZOQtUrT2CHQRvk-5">
          <mxGeometry x="10" y="12" width="20.37" height="17.5" as="geometry" />
        </mxCell>
        <mxCell id="QC01RMZOQtUrT2CHQRvk-6" value="" style="group" vertex="1" connectable="0" parent="1">
          <mxGeometry x="380" y="-1530" width="100" height="50" as="geometry" />
        </mxCell>
        <mxCell id="QC01RMZOQtUrT2CHQRvk-4" value="" style="rounded=1;whiteSpace=wrap;html=1;fillColor=none;dashed=1;" vertex="1" parent="QC01RMZOQtUrT2CHQRvk-6">
          <mxGeometry width="100" height="50" as="geometry" />
        </mxCell>
        <mxCell id="QC01RMZOQtUrT2CHQRvk-1" value="" style="shape=image;verticalLabelPosition=bottom;labelBackgroundColor=default;verticalAlign=top;aspect=fixed;imageAspect=0;image=https://www.svgrepo.com/show/439231/mongodb.svg;imageBorder=none;" vertex="1" parent="QC01RMZOQtUrT2CHQRvk-6">
          <mxGeometry x="4" y="10" width="30" height="30" as="geometry" />
        </mxCell>
        <mxCell id="QC01RMZOQtUrT2CHQRvk-2" value="" style="shape=image;verticalLabelPosition=bottom;labelBackgroundColor=default;verticalAlign=top;aspect=fixed;imageAspect=0;image=https://cdn-icons-png.flaticon.com/512/5968/5968364.png;imageBorder=none;" vertex="1" parent="QC01RMZOQtUrT2CHQRvk-6">
          <mxGeometry x="50" y="5" width="40" height="40" as="geometry" />
        </mxCell>
        <mxCell id="QC01RMZOQtUrT2CHQRvk-7" value="" style="curved=1;endArrow=classic;html=1;rounded=0;fontSize=12;startSize=8;endSize=8;exitX=0.957;exitY=0.101;exitDx=0;exitDy=0;exitPerimeter=0;entryX=0.389;entryY=1.019;entryDx=0;entryDy=0;entryPerimeter=0;" edge="1" parent="1" source="zjYQGKLNK6lwTNudWq2m-1" target="QC01RMZOQtUrT2CHQRvk-4">
          <mxGeometry width="50" height="50" relative="1" as="geometry">
            <mxPoint x="410" y="-1390" as="sourcePoint" />
            <mxPoint x="460" y="-1440" as="targetPoint" />
            <Array as="points">
              <mxPoint x="410" y="-1400" />
            </Array>
          </mxGeometry>
        </mxCell>
        <mxCell id="QC01RMZOQtUrT2CHQRvk-10" value="Provision" style="edgeLabel;html=1;align=center;verticalAlign=middle;resizable=0;points=[];fontSize=12;" vertex="1" connectable="0" parent="QC01RMZOQtUrT2CHQRvk-7">
          <mxGeometry x="0.436" y="9" relative="1" as="geometry">
            <mxPoint as="offset" />
          </mxGeometry>
        </mxCell>
        <mxCell id="QC01RMZOQtUrT2CHQRvk-8" value="" style="curved=1;endArrow=classic;html=1;rounded=0;fontSize=12;startSize=8;endSize=8;exitX=0.943;exitY=0.131;exitDx=0;exitDy=0;entryX=0.5;entryY=1;entryDx=0;entryDy=0;exitPerimeter=0;" edge="1" parent="1" source="zjYQGKLNK6lwTNudWq2m-1" target="QC01RMZOQtUrT2CHQRvk-3">
          <mxGeometry width="50" height="50" relative="1" as="geometry">
            <mxPoint x="337" y="-1383" as="sourcePoint" />
            <mxPoint x="469" y="-1464" as="targetPoint" />
            <Array as="points">
              <mxPoint x="430" y="-1400" />
            </Array>
          </mxGeometry>
        </mxCell>
        <mxCell id="QC01RMZOQtUrT2CHQRvk-9" value="&lt;p style=&quot;line-height: 100%;&quot;&gt;Provision&lt;/p&gt;" style="edgeLabel;html=1;align=center;verticalAlign=middle;resizable=0;points=[];fontSize=12;" vertex="1" connectable="0" parent="QC01RMZOQtUrT2CHQRvk-8">
          <mxGeometry x="0.3826" y="5" relative="1" as="geometry">
            <mxPoint as="offset" />
          </mxGeometry>
        </mxCell>
        <mxCell id="JPtIN64_FV0m5R6eHk6Q-3" value="" style="group" vertex="1" connectable="0" parent="1">
          <mxGeometry x="570" y="-1410" width="100" height="80" as="geometry" />
        </mxCell>
        <mxCell id="b0-DDvdTEyyafv_or9Nb-1" value="" style="shape=image;verticalLabelPosition=bottom;labelBackgroundColor=default;verticalAlign=top;aspect=fixed;imageAspect=0;image=https://plmlab.math.cnrs.fr/uploads/-/system/project/avatar/1748/nomad.png;fontStyle=1;imageBorder=none;" vertex="1" parent="JPtIN64_FV0m5R6eHk6Q-3">
          <mxGeometry x="7" y="7" width="30" height="30" as="geometry" />
        </mxCell>
        <mxCell id="b0-DDvdTEyyafv_or9Nb-2" value="" style="shape=image;verticalLabelPosition=bottom;labelBackgroundColor=default;verticalAlign=top;aspect=fixed;imageAspect=0;image=https://global-uploads.webflow.com/6203daf47137054c031fa0e6/64071d4ee3e10617c9106129_consul.png;fontStyle=1;imageBorder=none;clipPath=inset(14% 11% 13.67% 11.67%);" vertex="1" parent="JPtIN64_FV0m5R6eHk6Q-3">
          <mxGeometry x="65" y="8.599999999999909" width="32.07" height="30" as="geometry" />
        </mxCell>
        <mxCell id="b0-DDvdTEyyafv_or9Nb-3" value="" style="shape=image;verticalLabelPosition=bottom;labelBackgroundColor=default;verticalAlign=top;aspect=fixed;imageAspect=0;image=https://www.svgrepo.com/show/448679/vault.svg;imageBorder=none;" vertex="1" parent="JPtIN64_FV0m5R6eHk6Q-3">
          <mxGeometry x="37" y="48" width="28" height="28" as="geometry" />
        </mxCell>
        <mxCell id="JPtIN64_FV0m5R6eHk6Q-2" value="" style="rounded=1;whiteSpace=wrap;html=1;dashed=1;fillColor=none;" vertex="1" parent="JPtIN64_FV0m5R6eHk6Q-3">
          <mxGeometry width="100" height="80" as="geometry" />
        </mxCell>
        <mxCell id="JPtIN64_FV0m5R6eHk6Q-4" value="" style="curved=1;endArrow=classic;html=1;rounded=0;fontSize=12;startSize=8;endSize=8;exitX=0.957;exitY=0.409;exitDx=0;exitDy=0;exitPerimeter=0;" edge="1" parent="1" source="zjYQGKLNK6lwTNudWq2m-1" target="JPtIN64_FV0m5R6eHk6Q-2">
          <mxGeometry width="50" height="50" relative="1" as="geometry">
            <mxPoint x="420" y="-1250" as="sourcePoint" />
            <mxPoint x="470" y="-1300" as="targetPoint" />
            <Array as="points">
              <mxPoint x="420" y="-1260" />
            </Array>
          </mxGeometry>
        </mxCell>
        <mxCell id="JPtIN64_FV0m5R6eHk6Q-13" value="Deploy app" style="edgeLabel;html=1;align=center;verticalAlign=middle;resizable=0;points=[];fontSize=12;" vertex="1" connectable="0" parent="JPtIN64_FV0m5R6eHk6Q-4">
          <mxGeometry x="-0.2954" y="16" relative="1" as="geometry">
            <mxPoint x="40" y="-22" as="offset" />
          </mxGeometry>
        </mxCell>
      </root>
    </mxGraphModel>
  </diagram>
</mxfile>
